<svg width="127" height="20" viewBox="0 0 127 20" fill="none" xmlns="http://www.w3.org/2000/svg">
<path d="M5.62229 9.6986H2.01065V8.24094H5.62229C6.32171 8.24094 6.88806 8.12953 7.32134 7.9067C7.75461 7.68388 8.07028 7.3744 8.26835 6.97826C8.4726 6.58213 8.57473 6.13028 8.57473 5.62274C8.57473 5.15851 8.4726 4.72215 8.26835 4.31363C8.07028 3.90512 7.75461 3.57707 7.32134 3.32948C6.88806 3.07571 6.32171 2.94882 5.62229 2.94882H2.42845V15H0.636553V1.48188H5.62229C6.64357 1.48188 7.50702 1.65829 8.21264 2.0111C8.91826 2.3639 9.45366 2.85288 9.81884 3.47803C10.184 4.097 10.3666 4.80571 10.3666 5.60417C10.3666 6.47071 10.184 7.21037 9.81884 7.82314C9.45366 8.43592 8.91826 8.90323 8.21264 9.22509C7.50702 9.54076 6.64357 9.6986 5.62229 9.6986ZM16.4108 15.1857C15.7114 15.1857 15.0769 15.0681 14.5075 14.8329C13.9442 14.5915 13.4583 14.2542 13.0498 13.8209C12.6475 13.3876 12.338 12.8739 12.1214 12.2797C11.9047 11.6855 11.7964 11.0356 11.7964 10.3299V9.93999C11.7964 9.12296 11.9171 8.39568 12.1585 7.75815C12.3999 7.11443 12.728 6.56975 13.1427 6.12409C13.5574 5.67844 14.0278 5.34111 14.5539 5.11209C15.08 4.88308 15.6247 4.76857 16.188 4.76857C16.906 4.76857 17.5249 4.89236 18.0448 5.13995C18.571 5.38753 19.0011 5.73415 19.3354 6.1798C19.6696 6.61926 19.9172 7.13919 20.0781 7.73958C20.2391 8.33379 20.3195 8.9837 20.3195 9.68931V10.4599H12.8177V9.05797H18.6019V8.92799C18.5771 8.48234 18.4843 8.04906 18.3234 7.62817C18.1686 7.20728 17.921 6.86066 17.5806 6.58832C17.2402 6.31597 16.776 6.1798 16.188 6.1798C15.798 6.1798 15.439 6.26336 15.111 6.43048C14.7829 6.59141 14.5013 6.83281 14.2661 7.15467C14.0309 7.47653 13.8483 7.86957 13.7183 8.33379C13.5883 8.79801 13.5233 9.33341 13.5233 9.93999V10.3299C13.5233 10.8065 13.5883 11.2553 13.7183 11.6762C13.8545 12.0909 14.0494 12.4561 14.3032 12.7717C14.5632 13.0874 14.8758 13.335 15.2409 13.5145C15.6123 13.694 16.0332 13.7837 16.5036 13.7837C17.1102 13.7837 17.6239 13.6599 18.0448 13.4124C18.4657 13.1648 18.834 12.8336 19.1497 12.4189L20.1895 13.2452C19.9729 13.5733 19.6975 13.8859 19.3632 14.183C19.029 14.4801 18.6174 14.7215 18.1284 14.9072C17.6456 15.0928 17.0731 15.1857 16.4108 15.1857ZM26.5308 4.95426V6.27265H21.0994V4.95426H26.5308ZM22.9377 2.51246H24.6553V12.5118C24.6553 12.8522 24.708 13.1091 24.8132 13.2824C24.9184 13.4557 25.0546 13.5702 25.2217 13.6259C25.3888 13.6816 25.5683 13.7095 25.7602 13.7095C25.9026 13.7095 26.0511 13.6971 26.2058 13.6723C26.3668 13.6414 26.4875 13.6166 26.5679 13.5981L26.5772 15C26.441 15.0433 26.2616 15.0836 26.0387 15.1207C25.8221 15.164 25.559 15.1857 25.2495 15.1857C24.8287 15.1857 24.4418 15.1021 24.089 14.935C23.7362 14.7679 23.4546 14.4894 23.2441 14.0994C23.0399 13.7033 22.9377 13.171 22.9377 12.5025V2.51246ZM36.0102 11.5833C36.0102 11.2677 35.9607 10.9891 35.8616 10.7477C35.7688 10.5002 35.6017 10.2773 35.3603 10.0793C35.1251 9.88119 34.797 9.69241 34.3761 9.51291C33.9614 9.33341 33.4353 9.15082 32.7978 8.96513C32.1293 8.76706 31.5258 8.54733 30.9873 8.30593C30.4488 8.05835 29.9877 7.77672 29.6039 7.46105C29.2202 7.14538 28.9262 6.78329 28.7219 6.37477C28.5177 5.96626 28.4155 5.49894 28.4155 4.97283C28.4155 4.44671 28.5239 3.96082 28.7405 3.51517C28.9571 3.06952 29.2666 2.68267 29.6689 2.35462C30.0774 2.02038 30.5633 1.76042 31.1266 1.57473C31.6898 1.38904 32.3181 1.2962 33.0113 1.2962C34.0264 1.2962 34.8868 1.49117 35.5924 1.88111C36.3042 2.26487 36.8458 2.76932 37.2172 3.39448C37.5885 4.01344 37.7742 4.67573 37.7742 5.38134H35.9916C35.9916 4.87379 35.8833 4.42505 35.6667 4.0351C35.45 3.63896 35.122 3.32948 34.6825 3.10666C34.2431 2.87764 33.686 2.76313 33.0113 2.76313C32.3738 2.76313 31.8477 2.85907 31.433 3.05095C31.0183 3.24283 30.7088 3.50279 30.5045 3.83084C30.3065 4.15889 30.2074 4.53336 30.2074 4.95426C30.2074 5.23898 30.2662 5.49894 30.3838 5.73415C30.5076 5.96316 30.6964 6.17671 30.9502 6.37477C31.2101 6.57284 31.5382 6.75544 31.9343 6.92255C32.3367 7.08967 32.8164 7.2506 33.3734 7.40534C34.1409 7.62198 34.8032 7.86338 35.3603 8.12953C35.9173 8.39568 36.3754 8.69588 36.7344 9.03012C37.0996 9.35817 37.3688 9.73264 37.5421 10.1535C37.7216 10.5682 37.8114 11.0386 37.8114 11.5648C37.8114 12.1156 37.7 12.6139 37.4771 13.0596C37.2543 13.5052 36.9355 13.8859 36.5208 14.2015C36.1061 14.5172 35.6079 14.7617 35.026 14.935C34.4504 15.1021 33.8067 15.1857 33.0949 15.1857C32.4697 15.1857 31.8539 15.099 31.2473 14.9257C30.6469 14.7524 30.0991 14.4925 29.6039 14.1458C29.115 13.7992 28.7219 13.3721 28.4248 12.8646C28.1339 12.3508 27.9885 11.7566 27.9885 11.082H29.7711C29.7711 11.5462 29.8608 11.9454 30.0403 12.2797C30.2198 12.6077 30.4643 12.8801 30.7738 13.0967C31.0895 13.3133 31.4454 13.4743 31.8415 13.5795C32.2438 13.6785 32.6616 13.728 33.0949 13.728C33.72 13.728 34.2492 13.6414 34.6825 13.4681C35.1158 13.2948 35.4438 13.0472 35.6667 12.7253C35.8957 12.4035 36.0102 12.0228 36.0102 11.5833ZM44.0412 4.95426V6.27265H38.6098V4.95426H44.0412ZM40.4481 2.51246H42.1658V12.5118C42.1658 12.8522 42.2184 13.1091 42.3236 13.2824C42.4288 13.4557 42.565 13.5702 42.7321 13.6259C42.8992 13.6816 43.0787 13.7095 43.2706 13.7095C43.413 13.7095 43.5615 13.6971 43.7163 13.6723C43.8772 13.6414 43.9979 13.6166 44.0784 13.5981L44.0876 15C43.9515 15.0433 43.772 15.0836 43.5491 15.1207C43.3325 15.164 43.0694 15.1857 42.76 15.1857C42.3391 15.1857 41.9522 15.1021 41.5994 14.935C41.2466 14.7679 40.965 14.4894 40.7545 14.0994C40.5503 13.7033 40.4481 13.171 40.4481 12.5025V2.51246ZM45.4153 10.0885V9.875C45.4153 9.15082 45.5205 8.47924 45.731 7.86028C45.9414 7.23513 46.2447 6.69354 46.6409 6.23551C47.037 5.77129 47.5167 5.41229 48.0799 5.15851C48.6432 4.89855 49.2745 4.76857 49.974 4.76857C50.6796 4.76857 51.314 4.89855 51.8773 5.15851C52.4467 5.41229 52.9295 5.77129 53.3256 6.23551C53.728 6.69354 54.0343 7.23513 54.2448 7.86028C54.4552 8.47924 54.5605 9.15082 54.5605 9.875V10.0885C54.5605 10.8127 54.4552 11.4843 54.2448 12.1033C54.0343 12.7222 53.728 13.2638 53.3256 13.728C52.9295 14.1861 52.4498 14.5451 51.8866 14.805C51.3295 15.0588 50.6981 15.1857 49.9925 15.1857C49.2869 15.1857 48.6525 15.0588 48.0892 14.805C47.526 14.5451 47.0432 14.1861 46.6409 13.728C46.2447 13.2638 45.9414 12.7222 45.731 12.1033C45.5205 11.4843 45.4153 10.8127 45.4153 10.0885ZM47.1329 9.875V10.0885C47.1329 10.5899 47.1917 11.0634 47.3093 11.5091C47.4269 11.9485 47.6033 12.3385 47.8385 12.6789C48.0799 13.0193 48.3801 13.2886 48.7391 13.4866C49.0981 13.6785 49.5159 13.7745 49.9925 13.7745C50.4629 13.7745 50.8746 13.6785 51.2274 13.4866C51.5864 13.2886 51.8835 13.0193 52.1187 12.6789C52.3539 12.3385 52.5303 11.9485 52.6479 11.5091C52.7717 11.0634 52.8336 10.5899 52.8336 10.0885V9.875C52.8336 9.37983 52.7717 8.91252 52.6479 8.47305C52.5303 8.0274 52.3508 7.63436 52.1094 7.29393C51.8742 6.94731 51.5771 6.67497 51.2181 6.4769C50.8653 6.27883 50.4506 6.1798 49.974 6.1798C49.5036 6.1798 49.0888 6.27883 48.7299 6.4769C48.377 6.67497 48.0799 6.94731 47.8385 7.29393C47.6033 7.63436 47.4269 8.0274 47.3093 8.47305C47.1917 8.91252 47.1329 9.37983 47.1329 9.875ZM58.4321 6.53261V15H56.7144V4.95426H58.3856L58.4321 6.53261ZM61.5702 4.89855L61.5609 6.49547C61.4186 6.46452 61.2824 6.44595 61.1524 6.43976C61.0286 6.42739 60.8862 6.4212 60.7253 6.4212C60.3292 6.4212 59.9795 6.48309 59.6762 6.60688C59.3729 6.73068 59.116 6.90399 58.9056 7.12681C58.6951 7.34964 58.528 7.61579 58.4042 7.92527C58.2866 8.22856 58.2092 8.5628 58.1721 8.92799L57.6893 9.20652C57.6893 8.59994 57.7481 8.0305 57.8657 7.49819C57.9895 6.96588 58.1783 6.49547 58.4321 6.08696C58.6858 5.67225 59.0077 5.35039 59.3976 5.12138C59.7938 4.88617 60.2642 4.76857 60.8089 4.76857C60.9327 4.76857 61.075 4.78404 61.236 4.81499C61.3969 4.83975 61.5083 4.8676 61.5702 4.89855ZM66.1474 13.9601L68.942 4.95426H70.7803L66.7509 16.5505C66.6581 16.7981 66.5343 17.0642 66.3795 17.349C66.231 17.6399 66.0391 17.9153 65.8039 18.1753C65.5687 18.4352 65.284 18.6457 64.9497 18.8066C64.6217 18.9737 64.2286 19.0573 63.7706 19.0573C63.6344 19.0573 63.4611 19.0387 63.2507 19.0016C63.0402 18.9644 62.8917 18.9335 62.805 18.9087L62.7957 17.5161C62.8453 17.5223 62.9226 17.5285 63.0279 17.5346C63.1393 17.547 63.2166 17.5532 63.26 17.5532C63.6499 17.5532 63.9811 17.5006 64.2534 17.3954C64.5257 17.2963 64.7548 17.1261 64.9404 16.8847C65.1323 16.6495 65.2963 16.3246 65.4325 15.9099L66.1474 13.9601ZM64.0956 4.95426L66.7045 12.7532L67.1501 14.5636L65.9153 15.195L62.2201 4.95426H64.0956ZM76.5924 10.0885V9.875C76.5924 9.15082 76.6976 8.47924 76.9081 7.86028C77.1185 7.23513 77.4218 6.69354 77.8179 6.23551C78.2141 5.77129 78.6938 5.41229 79.257 5.15851C79.8203 4.89855 80.4516 4.76857 81.151 4.76857C81.8567 4.76857 82.4911 4.89855 83.0543 5.15851C83.6238 5.41229 84.1066 5.77129 84.5027 6.23551C84.905 6.69354 85.2114 7.23513 85.4219 7.86028C85.6323 8.47924 85.7375 9.15082 85.7375 9.875V10.0885C85.7375 10.8127 85.6323 11.4843 85.4219 12.1033C85.2114 12.7222 84.905 13.2638 84.5027 13.728C84.1066 14.1861 83.6269 14.5451 83.0636 14.805C82.5066 15.0588 81.8752 15.1857 81.1696 15.1857C80.464 15.1857 79.8296 15.0588 79.2663 14.805C78.703 14.5451 78.2203 14.1861 77.8179 13.728C77.4218 13.2638 77.1185 12.7222 76.9081 12.1033C76.6976 11.4843 76.5924 10.8127 76.5924 10.0885ZM78.31 9.875V10.0885C78.31 10.5899 78.3688 11.0634 78.4864 11.5091C78.604 11.9485 78.7804 12.3385 79.0156 12.6789C79.257 13.0193 79.5572 13.2886 79.9162 13.4866C80.2752 13.6785 80.693 13.7745 81.1696 13.7745C81.64 13.7745 82.0516 13.6785 82.4044 13.4866C82.7634 13.2886 83.0605 13.0193 83.2957 12.6789C83.5309 12.3385 83.7073 11.9485 83.8249 11.5091C83.9487 11.0634 84.0106 10.5899 84.0106 10.0885V9.875C84.0106 9.37983 83.9487 8.91252 83.8249 8.47305C83.7073 8.0274 83.5278 7.63436 83.2865 7.29393C83.0512 6.94731 82.7541 6.67497 82.3951 6.4769C82.0423 6.27883 81.6276 6.1798 81.151 6.1798C80.6806 6.1798 80.2659 6.27883 79.9069 6.4769C79.5541 6.67497 79.257 6.94731 79.0156 7.29393C78.7804 7.63436 78.604 8.0274 78.4864 8.47305C78.3688 8.91252 78.31 9.37983 78.31 9.875ZM89.6091 7.09896V15H87.8915V4.95426H89.5163L89.6091 7.09896ZM89.2006 9.59647L88.4857 9.56861C88.4919 8.88157 88.5941 8.24713 88.7921 7.66531C88.9902 7.07729 89.2687 6.56665 89.6277 6.13338C89.9867 5.70011 90.4138 5.36587 90.909 5.13066C91.4103 4.88927 91.9643 4.76857 92.5709 4.76857C93.066 4.76857 93.5117 4.83665 93.9078 4.97283C94.304 5.10281 94.6413 5.31326 94.9198 5.60417C95.2046 5.89508 95.4212 6.27265 95.5697 6.73687C95.7183 7.1949 95.7926 7.75506 95.7926 8.41735V15H94.0657V8.39878C94.0657 7.87266 93.9883 7.45177 93.8336 7.1361C93.6788 6.81424 93.4529 6.58213 93.1558 6.43976C92.8587 6.29121 92.4935 6.21694 92.0602 6.21694C91.6332 6.21694 91.2432 6.30669 90.8904 6.48619C90.5438 6.66569 90.2436 6.91327 89.9898 7.22894C89.7422 7.54461 89.5473 7.9067 89.4049 8.31522C89.2687 8.71754 89.2006 9.14463 89.2006 9.59647ZM100.268 0.739131V15H98.5408V0.739131H100.268ZM104.891 4.95426V15H103.164V4.95426H104.891ZM103.034 2.28963C103.034 2.0111 103.118 1.77589 103.285 1.58401C103.458 1.39214 103.712 1.2962 104.046 1.2962C104.374 1.2962 104.625 1.39214 104.798 1.58401C104.978 1.77589 105.068 2.0111 105.068 2.28963C105.068 2.55578 104.978 2.7848 104.798 2.97668C104.625 3.16236 104.374 3.25521 104.046 3.25521C103.712 3.25521 103.458 3.16236 103.285 2.97668C103.118 2.7848 103.034 2.55578 103.034 2.28963ZM109.366 7.09896V15H107.649V4.95426H109.274L109.366 7.09896ZM108.958 9.59647L108.243 9.56861C108.249 8.88157 108.351 8.24713 108.549 7.66531C108.747 7.07729 109.026 6.56665 109.385 6.13338C109.744 5.70011 110.171 5.36587 110.666 5.13066C111.168 4.88927 111.722 4.76857 112.328 4.76857C112.823 4.76857 113.269 4.83665 113.665 4.97283C114.061 5.10281 114.399 5.31326 114.677 5.60417C114.962 5.89508 115.178 6.27265 115.327 6.73687C115.476 7.1949 115.55 7.75506 115.55 8.41735V15H113.823V8.39878C113.823 7.87266 113.746 7.45177 113.591 7.1361C113.436 6.81424 113.21 6.58213 112.913 6.43976C112.616 6.29121 112.251 6.21694 111.817 6.21694C111.39 6.21694 111 6.30669 110.648 6.48619C110.301 6.66569 110.001 6.91327 109.747 7.22894C109.499 7.54461 109.305 7.9067 109.162 8.31522C109.026 8.71754 108.958 9.14463 108.958 9.59647ZM122.327 15.1857C121.628 15.1857 120.994 15.0681 120.424 14.8329C119.861 14.5915 119.375 14.2542 118.966 13.8209C118.564 13.3876 118.255 12.8739 118.038 12.2797C117.821 11.6855 117.713 11.0356 117.713 10.3299V9.93999C117.713 9.12296 117.834 8.39568 118.075 7.75815C118.317 7.11443 118.645 6.56975 119.059 6.12409C119.474 5.67844 119.944 5.34111 120.471 5.11209C120.997 4.88308 121.541 4.76857 122.105 4.76857C122.823 4.76857 123.442 4.89236 123.962 5.13995C124.488 5.38753 124.918 5.73415 125.252 6.1798C125.586 6.61926 125.834 7.13919 125.995 7.73958C126.156 8.33379 126.236 8.9837 126.236 9.68931V10.4599H118.734V9.05797H124.519V8.92799C124.494 8.48234 124.401 8.04906 124.24 7.62817C124.085 7.20728 123.838 6.86066 123.497 6.58832C123.157 6.31597 122.693 6.1798 122.105 6.1798C121.715 6.1798 121.356 6.26336 121.028 6.43048C120.7 6.59141 120.418 6.83281 120.183 7.15467C119.948 7.47653 119.765 7.86957 119.635 8.33379C119.505 8.79801 119.44 9.33341 119.44 9.93999V10.3299C119.44 10.8065 119.505 11.2553 119.635 11.6762C119.771 12.0909 119.966 12.4561 120.22 12.7717C120.48 13.0874 120.792 13.335 121.158 13.5145C121.529 13.694 121.95 13.7837 122.42 13.7837C123.027 13.7837 123.541 13.6599 123.962 13.4124C124.382 13.1648 124.751 12.8336 125.066 12.4189L126.106 13.2452C125.89 13.5733 125.614 13.8859 125.28 14.183C124.946 14.4801 124.534 14.7215 124.045 14.9072C123.562 15.0928 122.99 15.1857 122.327 15.1857Z" fill="white"/>
<path d="M2.01065 9.6986H0.822241V10.887H2.01065V9.6986ZM2.01065 8.24094V7.05254H0.822241V8.24094H2.01065ZM8.26835 6.97826L7.21209 6.43363L7.2087 6.44019L7.2054 6.44679L8.26835 6.97826ZM8.26835 4.31363L7.199 4.8321L7.20216 4.83862L7.2054 4.8451L8.26835 4.31363ZM7.32134 3.32948L6.72068 4.355L6.73172 4.36131L7.32134 3.32948ZM2.42845 2.94882V1.76042H1.24004V2.94882H2.42845ZM2.42845 15V16.1884H3.61685V15H2.42845ZM0.636553 15H-0.551853V16.1884H0.636553V15ZM0.636553 1.48188V0.293479H-0.551853V1.48188H0.636553ZM9.81884 3.47803L8.79268 4.07748L8.79531 4.08192L9.81884 3.47803ZM8.21264 9.22509L8.69796 10.3099L8.70583 10.3063L8.21264 9.22509ZM5.62229 8.51019H2.01065V10.887H5.62229V8.51019ZM3.19905 9.6986V8.24094H0.822241V9.6986H3.19905ZM2.01065 9.42935H5.62229V7.05254H2.01065V9.42935ZM5.62229 9.42935C6.43396 9.42935 7.20635 9.3022 7.86485 8.96354L6.77782 6.84987C6.56978 6.95686 6.20947 7.05254 5.62229 7.05254V9.42935ZM7.86485 8.96354C8.49903 8.63739 9.00895 8.15441 9.33129 7.50973L7.2054 6.44679C7.13161 6.59439 7.01018 6.73037 6.77782 6.84987L7.86485 8.96354ZM9.3246 7.52289C9.62708 6.93627 9.76314 6.29327 9.76314 5.62274H7.38633C7.38633 5.9673 7.31812 6.22798 7.21209 6.43363L9.3246 7.52289ZM9.76314 5.62274C9.76314 4.97716 9.61945 4.35848 9.33129 3.78216L7.2054 4.8451C7.32576 5.08582 7.38633 5.33987 7.38633 5.62274H9.76314ZM9.33769 3.79516C9.02478 3.14979 8.53067 2.65179 7.91095 2.29766L6.73172 4.36131C6.97855 4.50235 7.11578 4.66045 7.199 4.8321L9.33769 3.79516ZM7.92196 2.30403C7.24863 1.90965 6.45377 1.76042 5.62229 1.76042V4.13723C6.18965 4.13723 6.52749 4.24177 6.72071 4.35494L7.92196 2.30403ZM5.62229 1.76042H2.42845V4.13723H5.62229V1.76042ZM1.24004 2.94882V15H3.61685V2.94882H1.24004ZM2.42845 13.8116H0.636553V16.1884H2.42845V13.8116ZM1.82496 15V1.48188H-0.551853V15H1.82496ZM0.636553 2.67029H5.62229V0.293479H0.636553V2.67029ZM5.62229 2.67029C6.51156 2.67029 7.18185 2.82438 7.68117 3.07404L8.74411 0.948154C7.8322 0.492198 6.77558 0.293479 5.62229 0.293479V2.67029ZM7.68117 3.07404C8.19967 3.33329 8.55432 3.6694 8.79269 4.07747L10.845 2.8786C10.353 2.03637 9.63684 1.39452 8.74411 0.948154L7.68117 3.07404ZM8.79531 4.08192C9.04089 4.49816 9.17822 4.99391 9.17822 5.60417H11.555C11.555 4.6175 11.3272 3.69583 10.8424 2.87415L8.79531 4.08192ZM9.17822 5.60417C9.17822 6.30252 9.03214 6.82183 8.79798 7.21475L10.8397 8.43154C11.3359 7.59891 11.555 6.6389 11.555 5.60417H9.17822ZM8.79798 7.21475C8.56737 7.6017 8.22531 7.91311 7.71944 8.14386L8.70583 10.3063C9.61121 9.89335 10.3399 9.27013 10.8397 8.43154L8.79798 7.21475ZM7.72733 8.14029C7.21504 8.36947 6.52747 8.51019 5.62229 8.51019V10.887C6.75968 10.887 7.799 10.712 8.69794 10.3099L7.72733 8.14029ZM14.5075 14.8329L14.0393 15.9252L14.0465 15.9283L14.0538 15.9313L14.5075 14.8329ZM13.0498 13.8209L12.1789 14.6296L12.1852 14.6361L13.0498 13.8209ZM12.1214 12.2797L11.0049 12.6867L12.1214 12.2797ZM12.1585 7.75815L13.2699 8.17898L13.2713 8.17543L12.1585 7.75815ZM13.1427 6.12409L12.2727 5.31452L13.1427 6.12409ZM18.0448 5.13995L17.5339 6.21292L17.5388 6.21524L18.0448 5.13995ZM19.3354 6.1798L18.3846 6.89286L18.3895 6.89922L19.3354 6.1798ZM20.0781 7.73958L18.9302 8.04727L18.931 8.05025L20.0781 7.73958ZM20.3195 10.4599V11.6483H21.5079V10.4599H20.3195ZM12.8177 10.4599H11.6293V11.6483H12.8177V10.4599ZM12.8177 9.05797V7.86957H11.6293V9.05797H12.8177ZM18.6019 9.05797V10.2464H19.7903V9.05797H18.6019ZM18.6019 8.92799H19.7903V8.895L19.7885 8.86207L18.6019 8.92799ZM18.3234 7.62817L17.208 8.03825L17.2106 8.04544L17.2133 8.05259L18.3234 7.62817ZM15.111 6.43048L15.6344 7.49742L15.6424 7.49347L15.6504 7.4894L15.111 6.43048ZM13.7183 11.6762L12.5828 12.0268L12.5859 12.0369L12.5892 12.0469L13.7183 11.6762ZM14.3032 12.7717L13.3769 13.5164L13.3859 13.5272L14.3032 12.7717ZM15.2409 13.5145L14.7167 14.581L14.7238 14.5845L15.2409 13.5145ZM19.1497 12.4189L19.889 11.4885L18.939 10.7336L18.2041 11.6991L19.1497 12.4189ZM20.1895 13.2452L21.1812 13.9001L21.781 12.9919L20.9289 12.3148L20.1895 13.2452ZM18.1284 14.9072L17.7065 13.7962L17.7018 13.798L18.1284 14.9072ZM16.4108 13.9973C15.8461 13.9973 15.3686 13.9028 14.9612 13.7345L14.0538 15.9313C14.7853 16.2334 15.5766 16.3741 16.4108 16.3741V13.9973ZM14.9756 13.7406C14.5577 13.5614 14.2079 13.3168 13.9145 13.0056L12.1852 14.6361C12.7087 15.1915 13.3308 15.6215 14.0393 15.9252L14.9756 13.7406ZM13.9207 13.0122C13.6336 12.703 13.4041 12.3284 13.2379 11.8726L11.0049 12.6867C11.272 13.4193 11.6614 14.0722 12.179 14.6295L13.9207 13.0122ZM13.2379 11.8726C13.074 11.423 12.9848 10.9127 12.9848 10.3299H10.608C10.608 11.1584 10.7355 11.9479 11.0049 12.6867L13.2379 11.8726ZM12.9848 10.3299V9.93999H10.608V10.3299H12.9848ZM12.9848 9.93999C12.9848 9.23893 13.0884 8.65828 13.2699 8.17897L11.0471 7.33733C10.7458 8.13308 10.608 9.007 10.608 9.93999H12.9848ZM13.2713 8.17543C13.4652 7.65835 13.7165 7.25189 14.0127 6.93367L12.2727 5.31452C11.7394 5.8876 11.3347 6.57051 11.0458 7.34088L13.2713 8.17543ZM14.0127 6.93367C14.323 6.60017 14.6608 6.36166 15.0282 6.20174L14.0796 4.02245C13.3947 4.32056 12.7917 4.75672 12.2727 5.31452L14.0127 6.93367ZM15.0282 6.20174C15.4076 6.03661 15.791 5.95697 16.188 5.95697V3.58016C15.4584 3.58016 14.7525 3.72954 14.0796 4.02245L15.0282 6.20174ZM16.188 5.95697C16.7717 5.95697 17.208 6.05771 17.5339 6.21291L18.5558 4.06698C17.8419 3.72702 17.0402 3.58016 16.188 3.58016V5.95697ZM17.5388 6.21524C17.8973 6.38394 18.172 6.60932 18.3847 6.89284L20.2861 5.46676C19.8303 4.85897 19.2446 4.39112 18.5509 4.06465L17.5388 6.21524ZM18.3895 6.89922C18.6192 7.20134 18.8043 7.57724 18.9302 8.04726L21.226 7.4319C21.0301 6.70114 20.72 6.03719 20.2813 5.46038L18.3895 6.89922ZM18.931 8.05025C19.0609 8.52967 19.1311 9.07364 19.1311 9.68931H21.5079C21.5079 8.89375 21.4172 8.1379 21.2252 7.42892L18.931 8.05025ZM19.1311 9.68931V10.4599H21.5079V9.68931H19.1311ZM20.3195 9.27151H12.8177V11.6483H20.3195V9.27151ZM14.0061 10.4599V9.05797H11.6293V10.4599H14.0061ZM12.8177 10.2464H18.6019V7.86957H12.8177V10.2464ZM19.7903 9.05797V8.92799H17.4135V9.05797H19.7903ZM19.7885 8.86207C19.7568 8.29249 19.6378 7.73835 19.4334 7.20375L17.2133 8.05259C17.3308 8.35978 17.3975 8.67219 17.4153 8.99391L19.7885 8.86207ZM19.4388 7.21809C19.2115 6.59989 18.8377 6.07207 18.323 5.66033L16.8382 7.5163C17.0044 7.64924 17.1258 7.81466 17.208 8.03825L19.4388 7.21809ZM18.323 5.66033C17.7087 5.16889 16.952 4.9914 16.188 4.9914V7.36821C16.5999 7.36821 16.7717 7.46305 16.8382 7.5163L18.323 5.66033ZM16.188 4.9914C15.6219 4.9914 15.0765 5.1143 14.5715 5.37156L15.6504 7.4894C15.8015 7.41242 15.9741 7.36821 16.188 7.36821V4.9914ZM14.5876 5.36354C14.0713 5.61681 13.6448 5.99063 13.3066 6.45349L15.2256 7.85584C15.3578 7.67498 15.4945 7.56601 15.6344 7.49742L14.5876 5.36354ZM13.3066 6.45349C12.9719 6.91141 12.7344 7.44002 12.5739 8.01336L14.8627 8.65422C14.9621 8.29911 15.0898 8.04164 15.2256 7.85584L13.3066 6.45349ZM12.5739 8.01336C12.4083 8.60469 12.3349 9.25165 12.3349 9.93999H14.7117C14.7117 9.41517 14.7683 8.99132 14.8627 8.65422L12.5739 8.01336ZM12.3349 9.93999V10.3299H14.7117V9.93999H12.3349ZM12.3349 10.3299C12.3349 10.9157 12.415 11.4835 12.5828 12.0268L14.8538 11.3255C14.7616 11.0271 14.7117 10.6974 14.7117 10.3299H12.3349ZM12.5892 12.0469C12.7665 12.5868 13.0269 13.0809 13.377 13.5163L15.2294 12.0271C15.072 11.8312 14.9425 11.5949 14.8474 11.3054L12.5892 12.0469ZM13.3859 13.5272C13.7527 13.9727 14.1991 14.3266 14.7167 14.581L15.7652 12.448C15.5524 12.3434 15.3737 12.2021 15.2206 12.0163L13.3859 13.5272ZM14.7238 14.5845C15.2777 14.8522 15.8793 14.9721 16.5036 14.9721V12.5953C16.1871 12.5953 15.947 12.5358 15.7581 12.4445L14.7238 14.5845ZM16.5036 14.9721C17.2712 14.9721 18.0045 14.8149 18.6474 14.4367L17.4423 12.388C17.2434 12.505 16.9492 12.5953 16.5036 12.5953V14.9721ZM18.6474 14.4367C19.2101 14.1057 19.6925 13.6679 20.0953 13.1387L18.2041 11.6991C17.9755 11.9994 17.7214 12.2239 17.4423 12.388L18.6474 14.4367ZM18.4103 13.3493L19.4502 14.1757L20.9289 12.3148L19.889 11.4885L18.4103 13.3493ZM19.1979 12.5904C19.0454 12.8213 18.8411 13.0571 18.5737 13.2947L20.1528 15.0712C20.5539 14.7147 20.9005 14.3253 21.1812 13.9001L19.1979 12.5904ZM18.5737 13.2947C18.3641 13.4811 18.0829 13.6532 17.7065 13.7962L18.5503 16.0182C19.1518 15.7897 19.6939 15.4791 20.1528 15.0712L18.5737 13.2947ZM17.7018 13.798C17.3874 13.9189 16.9663 13.9973 16.4108 13.9973V16.3741C17.1799 16.3741 17.9039 16.2668 18.555 16.0163L17.7018 13.798ZM26.5308 4.95426H27.7192V3.76585H26.5308V4.95426ZM26.5308 6.27265V7.46105H27.7192V6.27265H26.5308ZM21.0994 6.27265H19.911V7.46105H21.0994V6.27265ZM21.0994 4.95426V3.76585H19.911V4.95426H21.0994ZM22.9377 2.51246V1.32405H21.7493V2.51246H22.9377ZM24.6553 2.51246H25.8438V1.32405H24.6553V2.51246ZM26.2058 13.6723L26.3936 14.8458L26.412 14.8429L26.4303 14.8394L26.2058 13.6723ZM26.5679 13.5981L27.7563 13.5902L27.7465 12.1064L26.3007 12.4401L26.5679 13.5981ZM26.5772 15L26.9376 16.1325L27.7714 15.8671L27.7656 14.9921L26.5772 15ZM26.0387 15.1207L25.8434 13.9485L25.8245 13.9516L25.8057 13.9554L26.0387 15.1207ZM23.2441 14.0994L22.1879 14.644L22.193 14.654L22.1983 14.6638L23.2441 14.0994ZM25.3424 4.95426V6.27265H27.7192V4.95426H25.3424ZM26.5308 5.08424H21.0994V7.46105H26.5308V5.08424ZM22.2878 6.27265V4.95426H19.911V6.27265H22.2878ZM21.0994 6.14266H26.5308V3.76585H21.0994V6.14266ZM22.9377 3.70086H24.6553V1.32405H22.9377V3.70086ZM23.4669 2.51246V12.5118H25.8438V2.51246H23.4669ZM23.4669 12.5118C23.4669 12.9386 23.5265 13.453 23.7973 13.8991L25.829 12.6656C25.8646 12.7242 25.8656 12.7532 25.859 12.7213C25.8527 12.6905 25.8438 12.6242 25.8438 12.5118H23.4669ZM23.7973 13.8991C24.0253 14.2747 24.3719 14.5953 24.8459 14.7533L25.5975 12.4985C25.6577 12.5185 25.7136 12.5504 25.7591 12.5887C25.8028 12.6254 25.8237 12.6569 25.829 12.6656L23.7973 13.8991ZM24.8459 14.7533C25.1445 14.8529 25.4519 14.8979 25.7602 14.8979V12.5211C25.6847 12.5211 25.6331 12.5104 25.5975 12.4985L24.8459 14.7533ZM25.7602 14.8979C25.9714 14.8979 26.1829 14.8795 26.3936 14.8458L26.0181 12.4988C25.9193 12.5147 25.8338 12.5211 25.7602 12.5211V14.8979ZM26.4303 14.8394C26.5945 14.8078 26.7327 14.7797 26.8352 14.756L26.3007 12.4401C26.2423 12.4536 26.139 12.475 25.9814 12.5053L26.4303 14.8394ZM25.3796 13.6059L25.3888 15.0079L27.7656 14.9921L27.7563 13.5902L25.3796 13.6059ZM26.2169 13.8675C26.1563 13.8868 26.0384 13.916 25.8434 13.9485L26.2341 16.2929C26.4847 16.2512 26.7258 16.1998 26.9376 16.1325L26.2169 13.8675ZM25.8057 13.9554C25.6894 13.9786 25.5093 13.9973 25.2495 13.9973V16.3741C25.6088 16.3741 25.9548 16.3494 26.2718 16.286L25.8057 13.9554ZM25.2495 13.9973C24.9906 13.9973 24.7793 13.947 24.5977 13.861L23.5803 16.009C24.1043 16.2572 24.6667 16.3741 25.2495 16.3741V13.9973ZM24.5977 13.861C24.5039 13.8166 24.3971 13.7336 24.2899 13.535L22.1983 14.6638C22.512 15.2451 22.9685 15.7192 23.5803 16.009L24.5977 13.861ZM24.3004 13.5548C24.2155 13.3903 24.1261 13.0684 24.1261 12.5025H21.7493C21.7493 13.2735 21.8642 14.0163 22.1879 14.644L24.3004 13.5548ZM24.1261 12.5025V2.51246H21.7493V12.5025H24.1261ZM35.8616 10.7477L34.7489 11.165L34.7553 11.182L34.7622 11.1988L35.8616 10.7477ZM35.3603 10.0793L34.5948 10.9883L34.6006 10.9932L34.6065 10.998L35.3603 10.0793ZM34.3761 9.51291L33.9041 10.6035L33.9099 10.6061L34.3761 9.51291ZM32.7978 8.96513L32.4602 10.1046L32.4655 10.1061L32.7978 8.96513ZM30.9873 8.30593L30.4909 9.38573L30.5012 9.39036L30.9873 8.30593ZM29.6689 2.35462L30.4199 3.27566L30.4215 3.2744L29.6689 2.35462ZM35.5924 1.88111L35.0175 2.92131L35.0284 2.92718L35.5924 1.88111ZM37.2172 3.39448L36.1954 4.00144L36.1981 4.0059L37.2172 3.39448ZM37.7742 5.38134V6.56975H38.9626V5.38134H37.7742ZM35.9916 5.38134H34.8032V6.56975H35.9916V5.38134ZM35.6667 4.0351L34.624 4.60532L34.6278 4.61224L35.6667 4.0351ZM34.6825 3.10666L34.1333 4.16061L34.1451 4.1666L34.6825 3.10666ZM30.5045 3.83084L29.4957 3.2027L29.4914 3.20962L29.4872 3.21659L30.5045 3.83084ZM30.3838 5.73415L29.3209 6.26562L29.3294 6.28258L29.3384 6.29926L30.3838 5.73415ZM30.9502 6.37477L30.2189 7.31168L30.23 7.32007L30.9502 6.37477ZM31.9343 6.92255L31.4724 8.01753L31.4785 8.02004L31.9343 6.92255ZM33.3734 7.40534L33.6962 6.26162L33.6915 6.26029L33.3734 7.40534ZM36.7344 9.03012L35.9246 9.8999L35.9323 9.90712L35.9402 9.9142L36.7344 9.03012ZM37.5421 10.1535L36.4432 10.606L36.4473 10.6158L36.4515 10.6256L37.5421 10.1535ZM36.5208 14.2015L35.801 13.2559L36.5208 14.2015ZM35.026 14.935L35.3574 16.0763L35.3653 16.074L35.026 14.935ZM31.2473 14.9257L30.9177 16.0675L30.9208 16.0684L31.2473 14.9257ZM29.6039 14.1458L28.9167 15.1154L28.9224 15.1194L29.6039 14.1458ZM28.4248 12.8646L27.3907 13.4502L27.3949 13.4576L27.3992 13.4649L28.4248 12.8646ZM27.9885 11.082V9.89357H26.8V11.082H27.9885ZM29.7711 11.082H30.9595V9.89357H29.7711V11.082ZM30.0403 12.2797L28.9933 12.8419L28.9978 12.8501L30.0403 12.2797ZM30.7738 13.0967L30.0922 14.0703L30.1013 14.0766L30.7738 13.0967ZM31.8415 13.5795L31.5364 14.7281L31.5469 14.7308L31.5574 14.7334L31.8415 13.5795ZM35.6667 12.7253L34.6984 12.0363L34.6939 12.0426L34.6896 12.0489L35.6667 12.7253ZM37.1986 11.5833C37.1986 11.1446 37.1298 10.7078 36.9611 10.2967L34.7622 11.1988C34.7915 11.2704 34.8218 11.3907 34.8218 11.5833H37.1986ZM36.9744 10.3305C36.7958 9.85425 36.4878 9.46711 36.1141 9.16053L34.6065 10.998C34.7156 11.0875 34.7418 11.1461 34.7489 11.165L36.9744 10.3305ZM36.1258 9.17023C35.7681 8.86902 35.3241 8.62523 34.8423 8.41976L33.9099 10.6061C34.2699 10.7596 34.4821 10.8934 34.5948 10.9883L36.1258 9.17023ZM34.8482 8.42228C34.3723 8.2163 33.7954 8.01789 33.1301 7.82413L32.4655 10.1061C33.0753 10.2837 33.5505 10.4505 33.9041 10.6035L34.8482 8.42228ZM33.1354 7.82569C32.5088 7.64002 31.956 7.43782 31.4734 7.2215L30.5012 9.39036C31.0956 9.65684 31.7498 9.8941 32.4602 10.1046L33.1354 7.82569ZM31.4838 7.22618C31.0208 7.01333 30.6504 6.78302 30.3589 6.54326L28.849 8.37884C29.325 8.77042 29.8769 9.10337 30.4909 9.38568L31.4838 7.22618ZM30.3589 6.54326C30.0923 6.32396 29.9083 6.09019 29.7849 5.8433L27.659 6.90625C27.9441 7.47638 28.3481 7.9668 28.849 8.37884L30.3589 6.54326ZM29.7849 5.8433C29.6748 5.62321 29.6039 5.34254 29.6039 4.97283H27.2271C27.2271 5.65535 27.3605 6.30931 27.659 6.90625L29.7849 5.8433ZM29.6039 4.97283C29.6039 4.61534 29.6762 4.30856 29.8093 4.03473L27.6717 2.99561C27.3715 3.61309 27.2271 4.27808 27.2271 4.97283H29.6039ZM29.8093 4.03473C29.9468 3.75181 30.1449 3.49989 30.4199 3.27566L28.9179 1.43358C28.3883 1.86545 27.9674 2.38723 27.6717 2.99561L29.8093 4.03473ZM30.4215 3.2744C30.704 3.04326 31.057 2.849 31.4987 2.70338L30.7545 0.446074C30.0697 0.67183 29.4509 0.997503 28.9164 1.43484L30.4215 3.2744ZM31.4987 2.70338C31.9236 2.56331 32.4237 2.4846 33.0113 2.4846V0.10779C32.2125 0.10779 31.4561 0.214767 30.7545 0.446074L31.4987 2.70338ZM33.0113 2.4846C33.8765 2.4846 34.5279 2.65063 35.0176 2.92126L36.1672 0.840973C35.2457 0.331712 34.1763 0.10779 33.0113 0.10779V2.4846ZM35.0284 2.92718C35.5725 3.22052 35.9461 3.58165 36.1954 4.00144L38.2389 2.78751C37.7455 1.957 37.0359 1.30923 36.1564 0.83505L35.0284 2.92718ZM36.1981 4.0059C36.4614 4.44463 36.5858 4.89626 36.5858 5.38134H38.9626C38.9626 4.45519 38.7157 3.58224 38.2362 2.78305L36.1981 4.0059ZM37.7742 4.19294H35.9916V6.56975H37.7742V4.19294ZM37.18 5.38134C37.18 4.70005 37.0331 4.04758 36.7055 3.45796L34.6278 4.61224C34.7335 4.80251 34.8032 5.04754 34.8032 5.38134H37.18ZM36.7093 3.46489C36.3671 2.83899 35.8529 2.36767 35.22 2.04672L34.1451 4.1666C34.391 4.2913 34.533 4.43894 34.624 4.60531L36.7093 3.46489ZM35.2317 2.05277C34.5726 1.7093 33.8114 1.57473 33.0113 1.57473V3.95154C33.5606 3.95154 33.9135 4.04599 34.1333 4.16055L35.2317 2.05277ZM33.0113 1.57473C32.2652 1.57473 31.5541 1.68546 30.9339 1.9724L31.932 4.1295C32.1413 4.03269 32.4824 3.95154 33.0113 3.95154V1.57473ZM30.9339 1.9724C30.3481 2.24347 29.8433 2.64447 29.4957 3.2027L31.5134 4.45898C31.5743 4.36112 31.6885 4.24219 31.932 4.1295L30.9339 1.9724ZM29.4872 3.21659C29.1664 3.74793 29.019 4.33882 29.019 4.95426H31.3958C31.3958 4.7279 31.4466 4.56985 31.5219 4.44509L29.4872 3.21659ZM29.019 4.95426C29.019 5.40791 29.1141 5.85202 29.3209 6.26562L31.4468 5.20268C31.4184 5.14587 31.3958 5.07005 31.3958 4.95426H29.019ZM29.3384 6.29926C29.5563 6.70238 29.8657 7.03585 30.219 7.31161L31.6814 5.43793C31.5271 5.31756 31.459 5.22395 31.4293 5.16904L29.3384 6.29926ZM30.23 7.32007C30.5898 7.59424 31.0113 7.823 31.4724 8.01751L32.3963 5.8276C32.0651 5.68787 31.8305 5.55144 31.6704 5.42948L30.23 7.32007ZM31.4785 8.02004C31.9375 8.21071 32.4656 8.38656 33.0553 8.55039L33.6915 6.26029C33.1671 6.11464 32.7358 5.96864 32.3902 5.82507L31.4785 8.02004ZM33.0506 8.54906C33.7707 8.75233 34.3665 8.97182 34.848 9.20183L35.8726 7.05723C35.2399 6.75493 34.5111 6.49163 33.6962 6.26163L33.0506 8.54906ZM34.848 9.20183C35.323 9.42879 35.6733 9.66594 35.9246 9.8999L37.5442 8.16033C37.0775 7.72582 36.5117 7.36258 35.8726 7.05723L34.848 9.20183ZM35.9402 9.9142C36.1833 10.1326 36.343 10.3627 36.4432 10.606L38.641 9.70105C38.3946 9.10256 38.0158 8.58374 37.5286 8.14604L35.9402 9.9142ZM36.4515 10.6256C36.5568 10.8688 36.623 11.1746 36.623 11.5648H38.9998C38.9998 10.9027 38.8865 10.2677 38.6327 9.68147L36.4515 10.6256ZM36.623 11.5648C36.623 11.9509 36.5461 12.2643 36.4142 12.5281L38.5401 13.591C38.8538 12.9636 38.9998 12.2804 38.9998 11.5648H36.623ZM36.4142 12.5281C36.2763 12.8038 36.0781 13.0451 35.801 13.2559L37.2406 15.1472C37.793 14.7267 38.2323 14.2067 38.5401 13.591L36.4142 12.5281ZM35.801 13.2559C35.5176 13.4717 35.1534 13.6571 34.6868 13.7961L35.3653 16.074C36.0623 15.8663 36.6947 15.5628 37.2406 15.1472L35.801 13.2559ZM34.6947 13.7937C34.2447 13.9244 33.7149 13.9973 33.0949 13.9973V16.3741C33.8985 16.3741 34.6561 16.2799 35.3574 16.0763L34.6947 13.7937ZM33.0949 13.9973C32.5812 13.9973 32.0752 13.9263 31.5738 13.783L30.9208 16.0684C31.6326 16.2718 32.3583 16.3741 33.0949 16.3741V13.9973ZM31.5769 13.7839C31.0979 13.6457 30.6698 13.4413 30.2854 13.1723L28.9224 15.1194C29.5285 15.5436 30.1958 15.8591 30.9177 16.0675L31.5769 13.7839ZM30.2912 13.1763C29.9372 12.9254 29.6606 12.6232 29.4504 12.2642L27.3992 13.4649C27.7833 14.121 28.2927 14.673 28.9167 15.1154L30.2912 13.1763ZM29.4589 12.279C29.2829 11.968 29.1769 11.5811 29.1769 11.082H26.8C26.8 11.9322 26.985 12.7336 27.3907 13.4502L29.4589 12.279ZM27.9885 12.2704H29.7711V9.89357H27.9885V12.2704ZM28.5827 11.082C28.5827 11.699 28.7024 12.3003 28.9933 12.8419L31.0873 11.7174C31.0192 11.5906 30.9595 11.3934 30.9595 11.082H28.5827ZM28.9978 12.8501C29.2659 13.3402 29.6346 13.7499 30.0923 14.0703L31.4553 12.1231C31.294 12.0102 31.1737 11.8752 31.0829 11.7092L28.9978 12.8501ZM30.1013 14.0766C30.5366 14.3753 31.0184 14.5905 31.5364 14.7281L32.1466 12.4309C31.8723 12.3581 31.6423 12.2514 31.4462 12.1168L30.1013 14.0766ZM31.5574 14.7334C32.0569 14.8564 32.5703 14.9164 33.0949 14.9164V12.5396C32.753 12.5396 32.4308 12.5007 32.1255 12.4255L31.5574 14.7334ZM33.0949 14.9164C33.8229 14.9164 34.5114 14.8165 35.1239 14.5715L34.2412 12.3647C33.9871 12.4663 33.6172 12.5396 33.0949 12.5396V14.9164ZM35.1239 14.5715C35.7315 14.3284 36.2644 13.9497 36.6438 13.4018L34.6896 12.0489C34.6233 12.1446 34.5001 12.2611 34.2412 12.3647L35.1239 14.5715ZM36.635 13.4143C37.0231 12.8688 37.1986 12.2407 37.1986 11.5833H34.8218C34.8218 11.8049 34.7682 11.9381 34.6984 12.0363L36.635 13.4143ZM44.0412 4.95426H45.2296V3.76585H44.0412V4.95426ZM44.0412 6.27265V7.46105H45.2296V6.27265H44.0412ZM38.6098 6.27265H37.4214V7.46105H38.6098V6.27265ZM38.6098 4.95426V3.76585H37.4214V4.95426H38.6098ZM40.4481 2.51246V1.32405H39.2597V2.51246H40.4481ZM42.1658 2.51246H43.3542V1.32405H42.1658V2.51246ZM43.7163 13.6723L43.904 14.8458L43.9224 14.8429L43.9407 14.8394L43.7163 13.6723ZM44.0784 13.5981L45.2667 13.5902L45.2569 12.1064L43.8111 12.4401L44.0784 13.5981ZM44.0876 15L44.448 16.1325L45.2818 15.8671L45.276 14.9921L44.0876 15ZM43.5491 15.1207L43.3538 13.9485L43.3349 13.9516L43.3161 13.9554L43.5491 15.1207ZM40.7545 14.0994L39.6983 14.644L39.7034 14.654L39.7087 14.6638L40.7545 14.0994ZM42.8528 4.95426V6.27265H45.2296V4.95426H42.8528ZM44.0412 5.08424H38.6098V7.46105H44.0412V5.08424ZM39.7982 6.27265V4.95426H37.4214V6.27265H39.7982ZM38.6098 6.14266H44.0412V3.76585H38.6098V6.14266ZM40.4481 3.70086H42.1658V1.32405H40.4481V3.70086ZM40.9774 2.51246V12.5118H43.3542V2.51246H40.9774ZM40.9774 12.5118C40.9774 12.9386 41.0369 13.453 41.3078 13.8991L43.3394 12.6656C43.375 12.7242 43.376 12.7532 43.3695 12.7213C43.3632 12.6905 43.3542 12.6242 43.3542 12.5118H40.9774ZM41.3078 13.8991C41.5358 14.2747 41.8823 14.5953 42.3563 14.7533L43.1079 12.4985C43.1681 12.5185 43.224 12.5504 43.2695 12.5887C43.3132 12.6254 43.3341 12.6569 43.3394 12.6656L41.3078 13.8991ZM42.3563 14.7533C42.6549 14.8529 42.9624 14.8979 43.2706 14.8979V12.5211C43.1951 12.5211 43.1435 12.5104 43.1079 12.4985L42.3563 14.7533ZM43.2706 14.8979C43.4818 14.8979 43.6933 14.8795 43.904 14.8458L43.5285 12.4988C43.4297 12.5147 43.3442 12.5211 43.2706 12.5211V14.8979ZM43.9407 14.8394C44.1049 14.8078 44.2431 14.7797 44.3456 14.756L43.8111 12.4401C43.7527 12.4536 43.6495 12.475 43.4918 12.5053L43.9407 14.8394ZM42.89 13.6059L42.8993 15.0079L45.276 14.9921L45.2667 13.5902L42.89 13.6059ZM43.7273 13.8675C43.6667 13.8868 43.5488 13.916 43.3538 13.9485L43.7445 16.2929C43.9951 16.2512 44.2362 16.1998 44.448 16.1325L43.7273 13.8675ZM43.3161 13.9554C43.1998 13.9786 43.0197 13.9973 42.76 13.9973V16.3741C43.1192 16.3741 43.4652 16.3494 43.7822 16.286L43.3161 13.9554ZM42.76 13.9973C42.501 13.9973 42.2898 13.947 42.1082 13.861L41.0907 16.009C41.6147 16.2572 42.1771 16.3741 42.76 16.3741V13.9973ZM42.1082 13.861C42.0143 13.8166 41.9075 13.7336 41.8004 13.535L39.7087 14.6638C40.0224 15.2451 40.4789 15.7192 41.0907 16.009L42.1082 13.861ZM41.8108 13.5548C41.726 13.3903 41.6366 13.0684 41.6366 12.5025H39.2597C39.2597 13.2735 39.3746 14.0163 39.6983 14.644L41.8108 13.5548ZM41.6366 12.5025V2.51246H39.2597V12.5025H41.6366ZM45.731 7.86028L46.8561 8.24283L46.8573 8.23943L45.731 7.86028ZM46.6409 6.23551L47.5397 7.01292L47.5449 7.00692L46.6409 6.23551ZM48.0799 5.15851L48.5681 6.24207L48.578 6.23754L48.0799 5.15851ZM51.8773 5.15851L51.3793 6.23754L51.3864 6.24082L51.3935 6.24401L51.8773 5.15851ZM53.3256 6.23551L52.4216 7.00692L52.4272 7.01339L52.4328 7.01979L53.3256 6.23551ZM54.2448 7.86028L53.1185 8.23943L53.1196 8.24283L54.2448 7.86028ZM54.2448 12.1033L53.1196 11.7207L53.1196 11.7207L54.2448 12.1033ZM53.3256 13.728L52.4276 12.9497L52.4268 12.9506L53.3256 13.728ZM51.8866 14.805L52.3792 15.8865L52.3846 15.8841L51.8866 14.805ZM48.0892 14.805L47.5912 15.8841L47.6011 15.8885L48.0892 14.805ZM46.6409 13.728L45.7369 14.4995L45.7424 14.5059L45.748 14.5123L46.6409 13.728ZM47.3093 11.5091L46.1603 11.8123L46.1613 11.8163L47.3093 11.5091ZM47.8385 12.6789L46.8608 13.3544L46.8649 13.3604L46.8691 13.3663L47.8385 12.6789ZM48.7391 13.4866L48.165 14.5272L48.172 14.531L48.1789 14.5347L48.7391 13.4866ZM51.2274 13.4866L51.7952 14.5307L51.8015 14.5272L51.2274 13.4866ZM52.6479 11.5091L51.5028 11.191L51.4999 11.2018L52.6479 11.5091ZM52.6479 8.47305L51.4988 8.77628L51.5013 8.7858L51.504 8.79527L52.6479 8.47305ZM52.1094 7.29393L51.126 7.96122L51.1329 7.97135L51.14 7.98134L52.1094 7.29393ZM51.2181 6.4769L50.6363 7.5132L50.644 7.51744L51.2181 6.4769ZM48.7299 6.4769L48.1557 5.43633L48.1481 5.44063L48.7299 6.4769ZM47.8385 7.29393L46.8633 6.61476L46.8608 6.6184L47.8385 7.29393ZM47.3093 8.47305L48.4574 8.78027L48.4584 8.77628L47.3093 8.47305ZM46.6037 10.0885V9.875H44.2269V10.0885H46.6037ZM46.6037 9.875C46.6037 9.26702 46.6918 8.72608 46.8561 8.24283L44.6058 7.47773C44.3492 8.23241 44.2269 9.03461 44.2269 9.875H46.6037ZM46.8573 8.23943C47.0229 7.74741 47.2532 7.34417 47.5397 7.01291L45.742 5.45811C45.2362 6.04291 44.8599 6.72285 44.6047 7.48113L46.8573 8.23943ZM47.5449 7.00692C47.8257 6.67784 48.1628 6.42465 48.5681 6.24202L47.5918 4.07501C46.8706 4.39992 46.2483 4.86473 45.7369 5.46409L47.5449 7.00692ZM48.578 6.23754C48.9663 6.05832 49.4245 5.95697 49.974 5.95697V3.58016C49.1246 3.58016 48.3201 3.73879 47.5819 4.07949L48.578 6.23754ZM49.974 5.95697C50.5313 5.95697 50.9923 6.05893 51.3793 6.23754L52.3753 4.07949C51.6358 3.73817 50.8279 3.58016 49.974 3.58016V5.95697ZM51.3935 6.24401C51.8048 6.42731 52.143 6.68036 52.4216 7.00692L54.2296 5.46409C53.716 4.86221 53.0886 4.39727 52.361 4.07302L51.3935 6.24401ZM52.4328 7.01979C52.723 7.35016 52.9541 7.75111 53.1185 8.23943L55.3711 7.48113C55.1146 6.71915 54.733 6.03692 54.2185 5.45123L52.4328 7.01979ZM53.1196 8.24283C53.2839 8.72608 53.3721 9.26702 53.3721 9.875H55.7489C55.7489 9.03461 55.6265 8.23241 55.3699 7.47773L53.1196 8.24283ZM53.3721 9.875V10.0885H55.7489V9.875H53.3721ZM53.3721 10.0885C53.3721 10.6965 53.2839 11.2375 53.1196 11.7207L55.3699 12.4858C55.6265 11.7311 55.7489 10.9289 55.7489 10.0885H53.3721ZM53.1196 11.7207C52.9554 12.2038 52.723 12.6088 52.4276 12.9497L54.2237 14.5064C54.7329 13.9188 55.1133 13.2407 55.3699 12.4858L53.1196 11.7207ZM52.4268 12.9506C52.144 13.2776 51.8021 13.5351 51.3885 13.726L52.3846 15.8841C53.0975 15.555 53.715 15.0946 54.2245 14.5054L52.4268 12.9506ZM51.3939 13.7236C51.0134 13.8969 50.554 13.9973 49.9925 13.9973V16.3741C50.8423 16.3741 51.6456 16.2207 52.3792 15.8865L51.3939 13.7236ZM49.9925 13.9973C49.4314 13.9973 48.9668 13.897 48.5774 13.7215L47.6011 15.8885C48.3381 16.2206 49.1425 16.3741 49.9925 16.3741V13.9973ZM48.5872 13.726C48.172 13.5344 47.8245 13.2748 47.5337 12.9438L45.748 14.5123C46.2619 15.0973 46.8799 15.5558 47.5912 15.8841L48.5872 13.726ZM47.5449 12.9566C47.2532 12.6148 47.0216 12.2075 46.8561 11.7207L44.6058 12.4858C44.8612 13.237 45.2363 13.9128 45.7369 14.4995L47.5449 12.9566ZM46.8561 11.7207C46.6918 11.2375 46.6037 10.6965 46.6037 10.0885H44.2269C44.2269 10.9289 44.3492 11.7311 44.6058 12.4858L46.8561 11.7207ZM45.9445 9.875V10.0885H48.3213V9.875H45.9445ZM45.9445 10.0885C45.9445 10.6834 46.0144 11.2594 46.1603 11.8123L48.4584 11.2058C48.3691 10.8674 48.3213 10.4964 48.3213 10.0885H45.9445ZM46.1613 11.8163C46.3107 12.3743 46.5408 12.8913 46.8608 13.3544L48.8163 12.0034C48.6659 11.7856 48.5432 11.5227 48.4573 11.2018L46.1613 11.8163ZM46.8691 13.3663C47.2121 13.85 47.6465 14.2411 48.165 14.5272L49.3132 12.4461C49.1138 12.3361 48.9478 12.1886 48.808 11.9915L46.8691 13.3663ZM48.1789 14.5347C48.7376 14.8333 49.354 14.9629 49.9925 14.9629V12.5861C49.6779 12.5861 49.4587 12.5237 49.2993 12.4385L48.1789 14.5347ZM49.9925 14.9629C50.6272 14.9629 51.2404 14.8323 51.7951 14.5306L50.6596 12.4426C50.5087 12.5247 50.2987 12.5861 49.9925 12.5861V14.9629ZM51.8015 14.5272C52.3229 14.2395 52.7577 13.8447 53.0964 13.3544L51.1409 12.0034C51.0092 12.194 50.8498 12.3377 50.6533 12.4461L51.8015 14.5272ZM53.0964 13.3544C53.4164 12.8913 53.6466 12.3743 53.7959 11.8163L51.4999 11.2018C51.414 11.5227 51.2914 11.7856 51.1409 12.0034L53.0964 13.3544ZM53.7929 11.8271C53.9478 11.2696 54.022 10.6884 54.022 10.0885H51.6452C51.6452 10.4914 51.5955 10.8572 51.5028 11.191L53.7929 11.8271ZM54.022 10.0885V9.875H51.6452V10.0885H54.022ZM54.022 9.875C54.022 9.28004 53.9475 8.70361 53.7918 8.15083L51.504 8.79527C51.5959 9.12143 51.6452 9.47963 51.6452 9.875H54.022ZM53.7969 8.16983C53.6468 7.60074 53.4108 7.07473 53.0788 6.60652L51.14 7.98134C51.2907 8.19399 51.4138 8.45406 51.4988 8.77628L53.7969 8.16983ZM53.0928 6.62664C52.7548 6.12858 52.3187 5.72688 51.7922 5.43636L50.644 7.51744C50.8354 7.62306 50.9936 7.76605 51.126 7.96122L53.0928 6.62664ZM51.7998 5.44063C51.2401 5.12639 50.6179 4.9914 49.974 4.9914V7.36821C50.2832 7.36821 50.4904 7.43128 50.6363 7.51317L51.7998 5.44063ZM49.974 4.9914C49.3327 4.9914 48.715 5.12781 48.1558 5.43636L49.3039 7.51744C49.4627 7.42986 49.6744 7.36821 49.974 7.36821V4.9914ZM48.1481 5.44063C47.6319 5.7304 47.2026 6.1276 46.8633 6.61476L48.8138 7.9731C48.9573 7.76703 49.1221 7.61954 49.3116 7.51317L48.1481 5.44063ZM46.8608 6.6184C46.539 7.08422 46.309 7.60615 46.1603 8.16983L48.4584 8.77628C48.5449 8.44865 48.6677 8.1845 48.8163 7.96946L46.8608 6.6184ZM46.1613 8.16584C46.0147 8.71392 45.9445 9.28519 45.9445 9.875H48.3213C48.3213 9.47447 48.3688 9.11111 48.4573 8.78027L46.1613 8.16584ZM58.4321 6.53261H59.6205V6.51514L59.62 6.49767L58.4321 6.53261ZM58.4321 15V16.1884H59.6205V15H58.4321ZM56.7144 15H55.526V16.1884H56.7144V15ZM56.7144 4.95426V3.76585H55.526V4.95426H56.7144ZM58.3856 4.95426L59.5735 4.91932L59.5396 3.76585H58.3856V4.95426ZM61.5702 4.89855L62.7586 4.90546L62.7629 4.16621L62.1017 3.83561L61.5702 4.89855ZM61.5609 6.49547L61.3085 7.65675L62.7408 7.96813L62.7493 6.50238L61.5609 6.49547ZM61.1524 6.43976L61.0342 7.62227L61.065 7.62535L61.0959 7.62683L61.1524 6.43976ZM58.4042 7.92527L57.3007 7.48388L57.2962 7.49563L58.4042 7.92527ZM58.1721 8.92799L58.766 9.95737L59.2929 9.65339L59.3544 9.04822L58.1721 8.92799ZM57.6893 9.20652H56.5009V11.2641L58.2832 10.2359L57.6893 9.20652ZM57.8657 7.49819L56.7081 7.22898L56.7053 7.24182L57.8657 7.49819ZM58.4321 6.08696L59.4416 6.71407L59.4457 6.70726L58.4321 6.08696ZM59.3976 5.12138L59.9995 6.14613L60.0044 6.14323L59.3976 5.12138ZM61.236 4.81499L61.0115 5.98201L61.0333 5.9862L61.0553 5.98958L61.236 4.81499ZM57.2437 6.53261V15H59.6205V6.53261H57.2437ZM58.4321 13.8116H56.7144V16.1884H58.4321V13.8116ZM57.9029 15V4.95426H55.526V15H57.9029ZM56.7144 6.14266H58.3856V3.76585H56.7144V6.14266ZM57.1978 4.9892L57.2442 6.56755L59.62 6.49767L59.5735 4.91932L57.1978 4.9892ZM60.3818 4.89164L60.3725 6.48856L62.7493 6.50238L62.7586 4.90546L60.3818 4.89164ZM61.8134 5.33419C61.614 5.29086 61.4121 5.26238 61.2089 5.2527L61.0959 7.62683C61.1527 7.62953 61.2231 7.63819 61.3085 7.65675L61.8134 5.33419ZM61.2707 5.25726C61.0981 5.24001 60.915 5.23279 60.7253 5.23279V7.6096C60.8575 7.6096 60.9591 7.61477 61.0342 7.62227L61.2707 5.25726ZM60.7253 5.23279C60.2066 5.23279 59.6994 5.31381 59.2271 5.5066L60.1253 7.70717C60.2595 7.65237 60.4517 7.6096 60.7253 7.6096V5.23279ZM59.2271 5.5066C58.7778 5.68999 58.3763 5.95637 58.0416 6.31082L59.7696 7.9428C59.8557 7.8516 59.968 7.77136 60.1253 7.70717L59.2271 5.5066ZM58.0416 6.31082C57.7198 6.65152 57.4752 7.04781 57.3008 7.48391L59.5076 8.36663C59.5808 8.18377 59.6704 8.04776 59.7696 7.9428L58.0416 6.31082ZM57.2962 7.49563C57.1355 7.91005 57.0364 8.34993 56.9898 8.80775L59.3544 9.04822C59.3821 8.77568 59.4377 8.54708 59.5122 8.35491L57.2962 7.49563ZM57.5782 7.89861L57.0954 8.17714L58.2832 10.2359L58.766 9.95737L57.5782 7.89861ZM58.8777 9.20652C58.8777 8.67663 58.9291 8.19386 59.0261 7.75456L56.7053 7.24182C56.5671 7.86713 56.5009 8.52325 56.5009 9.20652H58.8777ZM59.0232 7.76738C59.1215 7.34465 59.265 6.99824 59.4415 6.71406L57.4226 5.45986C57.0916 5.9927 56.8575 6.58711 56.7082 7.229L59.0232 7.76738ZM59.4457 6.70726C59.6054 6.44632 59.7905 6.26886 59.9995 6.14612L58.7958 4.09663C58.2249 4.43193 57.7663 4.89819 57.4184 5.46665L59.4457 6.70726ZM60.0044 6.14323C60.1859 6.03547 60.4385 5.95697 60.8089 5.95697V3.58016C60.0899 3.58016 59.4017 3.73687 58.7909 4.09952L60.0044 6.14323ZM60.8089 5.95697C60.8377 5.95697 60.9024 5.96102 61.0115 5.98201L61.4604 3.64797C61.2477 3.60707 61.0276 3.58016 60.8089 3.58016V5.95697ZM61.0553 5.98958C61.083 5.99385 61.1051 5.99771 61.122 6.00097C61.1391 6.00428 61.1487 6.00655 61.152 6.00737C61.1558 6.00833 61.1484 6.00665 61.1327 6.00132C61.1245 5.99853 61.1124 5.99422 61.0974 5.98811C61.0825 5.98205 61.0625 5.97335 61.0387 5.96149L62.1017 3.83561C61.8571 3.7133 61.5794 3.66544 61.4167 3.6404L61.0553 5.98958ZM66.1474 13.9601L67.2632 14.3693L67.2735 14.341L67.2824 14.3124L66.1474 13.9601ZM68.942 4.95426V3.76585H68.0665L67.807 4.60205L68.942 4.95426ZM70.7803 4.95426L71.9029 5.34432L72.4514 3.76585H70.7803V4.95426ZM66.7509 16.5505L67.8636 16.9678L67.8687 16.9542L67.8735 16.9406L66.7509 16.5505ZM66.3795 17.349L65.3354 16.7815L65.3281 16.7949L65.3211 16.8085L66.3795 17.349ZM64.9497 18.8066L64.4342 17.7359L64.4222 17.7416L64.4103 17.7477L64.9497 18.8066ZM62.805 18.9087L61.6167 18.9167L61.6226 19.8069L62.4785 20.0514L62.805 18.9087ZM62.7957 17.5161L62.9431 16.3368L61.5983 16.1687L61.6074 17.524L62.7957 17.5161ZM63.0279 17.5346L63.1591 16.3535L63.1284 16.3501L63.0976 16.3483L63.0279 17.5346ZM64.2534 17.3954L63.8473 16.2785L63.8361 16.2826L63.8251 16.2868L64.2534 17.3954ZM64.9404 16.8847L64.0196 16.1335L64.0088 16.1467L63.9985 16.1602L64.9404 16.8847ZM65.4325 15.9099L64.3168 15.5008L64.3098 15.5198L64.3034 15.5391L65.4325 15.9099ZM64.0956 4.95426L65.2226 4.57724L64.9512 3.76585H64.0956V4.95426ZM66.7045 12.7532L67.8584 12.4691L67.8469 12.4221L67.8315 12.3762L66.7045 12.7532ZM67.1501 14.5636L67.6911 15.6218L68.529 15.1934L68.3041 14.2796L67.1501 14.5636ZM65.9153 15.195L64.7975 15.5983L65.2553 16.8672L66.4563 16.2531L65.9153 15.195ZM62.2201 4.95426V3.76585H60.5279L61.1023 5.35762L62.2201 4.95426ZM67.2824 14.3124L70.077 5.30646L67.807 4.60205L65.0124 13.6079L67.2824 14.3124ZM68.942 6.14266H70.7803V3.76585H68.942V6.14266ZM69.6578 4.56419L65.6283 16.1604L67.8735 16.9406L71.9029 5.34432L69.6578 4.56419ZM65.6382 16.1332C65.5684 16.3192 65.4694 16.5348 65.3354 16.7815L67.4237 17.9164C67.5991 17.5936 67.7477 17.2769 67.8636 16.9678L65.6382 16.1332ZM65.3211 16.8085C65.2234 16.9998 65.0929 17.1898 64.9227 17.378L66.6851 18.9726C66.9853 18.6408 67.2385 18.2799 67.4379 17.8894L65.3211 16.8085ZM64.9227 17.378C64.7964 17.5175 64.6382 17.6376 64.4342 17.7359L65.4653 19.8774C65.9298 19.6537 66.341 19.353 66.6851 18.9726L64.9227 17.378ZM64.4103 17.7477C64.2852 17.8114 64.086 17.8689 63.7706 17.8689V20.2457C64.3713 20.2457 64.9582 20.136 65.4892 19.8655L64.4103 17.7477ZM63.7706 17.8689C63.7311 17.8689 63.6332 17.8623 63.4572 17.8313L63.0442 20.1719C63.289 20.2151 63.5378 20.2457 63.7706 20.2457V17.8689ZM63.4572 17.8313C63.3596 17.814 63.2825 17.7993 63.2238 17.7871C63.1947 17.781 63.1722 17.776 63.1555 17.7721C63.1382 17.768 63.131 17.7659 63.1315 17.7661L62.4785 20.0514C62.6303 20.0948 62.8329 20.1346 63.0442 20.1719L63.4572 17.8313ZM63.9934 18.9008L63.9841 17.5082L61.6074 17.524L61.6167 18.9167L63.9934 18.9008ZM62.6483 18.6953C62.7388 18.7066 62.8488 18.7146 62.9581 18.721L63.0976 16.3483C63.0506 16.3455 63.0137 16.343 62.9857 16.3407C62.9718 16.3396 62.9612 16.3387 62.9535 16.3379C62.9456 16.3372 62.9424 16.3368 62.9431 16.3368L62.6483 18.6953ZM62.8966 18.7158C63.0044 18.7278 63.1425 18.7416 63.26 18.7416V16.3648C63.2756 16.3648 63.284 16.3653 63.282 16.3652C63.2808 16.3652 63.2753 16.3648 63.2642 16.364C63.2417 16.3622 63.2075 16.3589 63.1591 16.3535L62.8966 18.7158ZM63.26 18.7416C63.7501 18.7416 64.2354 18.6764 64.6817 18.5039L63.8251 16.2868C63.7268 16.3248 63.5497 16.3648 63.26 16.3648V18.7416ZM64.6595 18.5122C65.1552 18.332 65.5664 18.0202 65.8824 17.6093L63.9985 16.1602C63.9431 16.2321 63.8963 16.2607 63.8473 16.2785L64.6595 18.5122ZM65.8613 17.636C66.1762 17.2499 66.3982 16.7782 66.5616 16.2806L64.3034 15.5391C64.1945 15.8709 64.0884 16.0492 64.0196 16.1335L65.8613 17.636ZM66.5483 16.319L67.2632 14.3693L65.0317 13.551L64.3168 15.5008L66.5483 16.319ZM62.9685 5.33127L65.5775 13.1302L67.8315 12.3762L65.2226 4.57724L62.9685 5.33127ZM65.5505 13.0372L65.9962 14.8477L68.3041 14.2796L67.8584 12.4691L65.5505 13.0372ZM66.6091 13.5055L65.3743 14.1368L66.4563 16.2531L67.6911 15.6218L66.6091 13.5055ZM67.0332 14.7916L63.338 4.5509L61.1023 5.35762L64.7975 15.5983L67.0332 14.7916ZM62.2201 6.14266H64.0956V3.76585H62.2201V6.14266ZM76.9081 7.86028L78.0332 8.24283L78.0344 8.23943L76.9081 7.86028ZM77.8179 6.23551L78.7168 7.01292L78.7219 7.00692L77.8179 6.23551ZM79.257 5.15851L79.7452 6.24207L79.755 6.23754L79.257 5.15851ZM83.0543 5.15851L82.5563 6.23754L82.5634 6.24082L82.5706 6.24401L83.0543 5.15851ZM84.5027 6.23551L83.5987 7.00692L83.6042 7.01339L83.6098 7.01979L84.5027 6.23551ZM85.4219 7.86028L84.2956 8.23943L84.2967 8.24283L85.4219 7.86028ZM85.4219 12.1033L84.2967 11.7207L84.2967 11.7207L85.4219 12.1033ZM84.5027 13.728L83.6046 12.9497L83.6038 12.9506L84.5027 13.728ZM83.0636 14.805L83.5563 15.8865L83.5616 15.8841L83.0636 14.805ZM79.2663 14.805L78.7683 15.8841L78.7781 15.8885L79.2663 14.805ZM77.8179 13.728L76.9139 14.4995L76.9194 14.5059L76.9251 14.5123L77.8179 13.728ZM78.4864 11.5091L77.3373 11.8123L77.3384 11.8163L78.4864 11.5091ZM79.0156 12.6789L78.0379 13.3544L78.042 13.3604L78.0462 13.3663L79.0156 12.6789ZM79.9162 13.4866L79.3421 14.5272L79.349 14.531L79.356 14.5347L79.9162 13.4866ZM82.4044 13.4866L82.9722 14.5307L82.9785 14.5272L82.4044 13.4866ZM83.8249 11.5091L82.6798 11.191L82.6769 11.2018L83.8249 11.5091ZM83.8249 8.47305L82.6759 8.77628L82.6784 8.7858L82.6811 8.79527L83.8249 8.47305ZM83.2865 7.29393L82.3031 7.96122L82.31 7.97135L82.317 7.98134L83.2865 7.29393ZM82.3951 6.4769L81.8134 7.5132L81.8211 7.51744L82.3951 6.4769ZM79.9069 6.4769L79.3328 5.43633L79.3252 5.44063L79.9069 6.4769ZM79.0156 7.29393L78.0404 6.61476L78.0379 6.6184L79.0156 7.29393ZM78.4864 8.47305L79.6344 8.78027L79.6355 8.77628L78.4864 8.47305ZM77.7808 10.0885V9.875H75.404V10.0885H77.7808ZM77.7808 9.875C77.7808 9.26702 77.8689 8.72608 78.0332 8.24283L75.7829 7.47773C75.5263 8.23241 75.404 9.03461 75.404 9.875H77.7808ZM78.0344 8.23943C78.2 7.74741 78.4303 7.34417 78.7168 7.01291L76.9191 5.45811C76.4133 6.04291 76.037 6.72285 75.7818 7.48113L78.0344 8.23943ZM78.7219 7.00692C79.0028 6.67784 79.3398 6.42465 79.7452 6.24202L78.7688 4.07501C78.0477 4.39992 77.4254 4.86473 76.9139 5.46409L78.7219 7.00692ZM79.755 6.23754C80.1433 6.05832 80.6016 5.95697 81.151 5.95697V3.58016C80.3016 3.58016 79.4972 3.73879 78.759 4.07949L79.755 6.23754ZM81.151 5.95697C81.7083 5.95697 82.1693 6.05893 82.5563 6.23754L83.5524 4.07949C82.8128 3.73817 82.005 3.58016 81.151 3.58016V5.95697ZM82.5706 6.24401C82.9819 6.42731 83.32 6.68036 83.5987 7.00692L85.4067 5.46409C84.8931 4.86221 84.2657 4.39727 83.5381 4.07302L82.5706 6.24401ZM83.6098 7.01979C83.9 7.35016 84.1312 7.75111 84.2956 8.23943L86.5482 7.48113C86.2917 6.71915 85.91 6.03692 85.3956 5.45123L83.6098 7.01979ZM84.2967 8.24283C84.461 8.72608 84.5491 9.26702 84.5491 9.875H86.9259C86.9259 9.03461 86.8036 8.23241 86.547 7.47773L84.2967 8.24283ZM84.5491 9.875V10.0885H86.9259V9.875H84.5491ZM84.5491 10.0885C84.5491 10.6965 84.461 11.2375 84.2967 11.7207L86.547 12.4858C86.8036 11.7311 86.9259 10.9289 86.9259 10.0885H84.5491ZM84.2967 11.7207C84.1325 12.2038 83.9001 12.6088 83.6046 12.9497L85.4008 14.5064C85.91 13.9188 86.2904 13.2407 86.547 12.4858L84.2967 11.7207ZM83.6038 12.9506C83.3211 13.2776 82.9792 13.5351 82.5656 13.726L83.5616 15.8841C84.2746 15.555 84.8921 15.0946 85.4016 14.5054L83.6038 12.9506ZM82.571 13.7236C82.1905 13.8969 81.7311 13.9973 81.1696 13.9973V16.3741C82.0194 16.3741 82.8226 16.2207 83.5563 15.8865L82.571 13.7236ZM81.1696 13.9973C80.6084 13.9973 80.1439 13.897 79.7545 13.7215L78.7781 15.8885C79.5152 16.2206 80.3195 16.3741 81.1696 16.3741V13.9973ZM79.7643 13.726C79.3491 13.5344 79.0016 13.2748 78.7108 12.9438L76.9251 14.5123C77.4389 15.0973 78.057 15.5558 78.7683 15.8841L79.7643 13.726ZM78.7219 12.9566C78.4303 12.6148 78.1987 12.2075 78.0332 11.7207L75.7829 12.4858C76.0383 13.237 76.4133 13.9128 76.9139 14.4995L78.7219 12.9566ZM78.0332 11.7207C77.8689 11.2375 77.7808 10.6965 77.7808 10.0885H75.404C75.404 10.9289 75.5263 11.7311 75.7829 12.4858L78.0332 11.7207ZM77.1216 9.875V10.0885H79.4984V9.875H77.1216ZM77.1216 10.0885C77.1216 10.6834 77.1914 11.2594 77.3373 11.8123L79.6355 11.2058C79.5462 10.8674 79.4984 10.4964 79.4984 10.0885H77.1216ZM77.3384 11.8163C77.4877 12.3743 77.7179 12.8913 78.0379 13.3544L79.9934 12.0034C79.8429 11.7856 79.7203 11.5227 79.6344 11.2018L77.3384 11.8163ZM78.0462 13.3663C78.3892 13.85 78.8236 14.2411 79.3421 14.5272L80.4903 12.4461C80.2909 12.3361 80.1248 12.1886 79.985 11.9915L78.0462 13.3663ZM79.356 14.5347C79.9146 14.8333 80.531 14.9629 81.1696 14.9629V12.5861C80.855 12.5861 80.6358 12.5237 80.4764 12.4385L79.356 14.5347ZM81.1696 14.9629C81.8043 14.9629 82.4175 14.8323 82.9722 14.5306L81.8366 12.4426C81.6858 12.5247 81.4758 12.5861 81.1696 12.5861V14.9629ZM82.9785 14.5272C83.5 14.2395 83.9348 13.8447 84.2735 13.3544L82.318 12.0034C82.1863 12.194 82.0268 12.3377 81.8303 12.4461L82.9785 14.5272ZM84.2735 13.3544C84.5935 12.8913 84.8236 12.3743 84.973 11.8163L82.6769 11.2018C82.5911 11.5227 82.4684 11.7856 82.318 12.0034L84.2735 13.3544ZM84.97 11.8271C85.1249 11.2696 85.199 10.6884 85.199 10.0885H82.8222C82.8222 10.4914 82.7726 10.8572 82.6799 11.191L84.97 11.8271ZM85.199 10.0885V9.875H82.8222V10.0885H85.199ZM85.199 9.875C85.199 9.28004 85.1245 8.70361 84.9688 8.15083L82.6811 8.79527C82.7729 9.12143 82.8222 9.47963 82.8222 9.875H85.199ZM84.974 8.16983C84.8238 7.60074 84.5879 7.07473 84.2559 6.60652L82.317 7.98134C82.4678 8.19399 82.5909 8.45406 82.6759 8.77628L84.974 8.16983ZM84.2698 6.62664C83.9319 6.12858 83.4958 5.72688 82.9692 5.43636L81.8211 7.51744C82.0125 7.62306 82.1706 7.76605 82.3031 7.96122L84.2698 6.62664ZM82.9769 5.44063C82.4172 5.12639 81.795 4.9914 81.151 4.9914V7.36821C81.4603 7.36821 81.6675 7.43128 81.8134 7.51317L82.9769 5.44063ZM81.151 4.9914C80.5097 4.9914 79.8921 5.12781 79.3328 5.43636L80.481 7.51744C80.6398 7.42986 80.8515 7.36821 81.151 7.36821V4.9914ZM79.3252 5.44063C78.809 5.7304 78.3797 6.1276 78.0404 6.61476L79.9908 7.9731C80.1343 7.76703 80.2992 7.61954 80.4887 7.51317L79.3252 5.44063ZM78.0379 6.6184C77.716 7.08422 77.4861 7.60615 77.3373 8.16983L79.6355 8.77628C79.7219 8.44865 79.8448 8.1845 79.9934 7.96946L78.0379 6.6184ZM77.3384 8.16584C77.1917 8.71392 77.1216 9.28519 77.1216 9.875H79.4984C79.4984 9.47447 79.5459 9.11111 79.6344 8.78027L77.3384 8.16584ZM89.6091 7.09896H90.7976V7.07325L90.7964 7.04756L89.6091 7.09896ZM89.6091 15V16.1884H90.7976V15H89.6091ZM87.8915 15H86.7031V16.1884H87.8915V15ZM87.8915 4.95426V3.76585H86.7031V4.95426H87.8915ZM89.5163 4.95426L90.7036 4.90286L90.6544 3.76585H89.5163V4.95426ZM89.2006 9.59647L89.1544 10.784L90.389 10.8321V9.59647H89.2006ZM88.4857 9.56861L87.2974 9.55791L87.287 10.7112L88.4395 10.7561L88.4857 9.56861ZM88.7921 7.66531L89.9171 8.04829L89.9183 8.04467L88.7921 7.66531ZM90.909 5.13066L91.4189 6.20414L91.4245 6.20142L90.909 5.13066ZM93.9078 4.97283L93.5215 6.09669L93.5294 6.0994L93.5373 6.102L93.9078 4.97283ZM94.9198 5.60417L94.0614 6.42608L94.0705 6.43541L94.9198 5.60417ZM95.5697 6.73687L94.4379 7.09907L94.4393 7.1035L95.5697 6.73687ZM95.7926 15V16.1884H96.981V15H95.7926ZM94.0657 15H92.8773V16.1884H94.0657V15ZM93.8336 7.1361L92.7625 7.65104L92.7665 7.65918L93.8336 7.1361ZM93.1558 6.43976L92.6243 7.50271L92.6333 7.50717L92.6423 7.51149L93.1558 6.43976ZM90.8904 6.48619L90.3515 5.42696L90.3439 5.43089L90.8904 6.48619ZM89.9898 7.22894L89.0636 6.48434L89.0591 6.48991L89.0547 6.49553L89.9898 7.22894ZM89.4049 8.31522L88.2826 7.92413L88.2792 7.93422L89.4049 8.31522ZM88.4207 7.09896V15H90.7976V7.09896H88.4207ZM89.6091 13.8116H87.8915V16.1884H89.6091V13.8116ZM89.0799 15V4.95426H86.7031V15H89.0799ZM87.8915 6.14266H89.5163V3.76585H87.8915V6.14266ZM88.329 5.00566L88.4219 7.15036L90.7964 7.04756L90.7036 4.90286L88.329 5.00566ZM89.2469 8.40896L88.532 8.38111L88.4395 10.7561L89.1544 10.784L89.2469 8.40896ZM89.6741 9.57932C89.6793 9.00417 89.7644 8.49696 89.9171 8.04829L87.6671 7.28233C87.4237 7.9973 87.3046 8.75896 87.2974 9.55791L89.6741 9.57932ZM89.9183 8.04467C90.0747 7.58064 90.2859 7.20163 90.5428 6.8916L88.7126 5.37515C88.2515 5.93167 87.9057 6.57395 87.6659 7.28595L89.9183 8.04467ZM90.5428 6.8916C90.7943 6.58805 91.0843 6.36303 91.4189 6.20412L90.3991 4.0572C89.7433 4.3687 89.1791 4.81216 88.7126 5.37515L90.5428 6.8916ZM91.4245 6.20142C91.7509 6.04425 92.1265 5.95697 92.5709 5.95697V3.58016C91.8021 3.58016 91.0697 3.73429 90.3934 4.05991L91.4245 6.20142ZM92.5709 5.95697C92.9579 5.95697 93.27 6.01023 93.5215 6.09669L94.2942 3.84897C93.7534 3.66308 93.1742 3.58016 92.5709 3.58016V5.95697ZM93.5373 6.102C93.7548 6.17337 93.9227 6.28111 94.0614 6.42603L95.7782 4.7823C95.3599 4.3454 94.8531 4.03225 94.2783 3.84365L93.5373 6.102ZM94.0705 6.43541C94.2027 6.57047 94.3347 6.7766 94.4379 7.09906L96.7016 6.37467C96.5077 5.76869 96.2064 5.21969 95.7692 4.77292L94.0705 6.43541ZM94.4393 7.1035C94.5381 7.408 94.6042 7.83631 94.6042 8.41735H96.981C96.981 7.67381 96.8985 6.9818 96.7002 6.37024L94.4393 7.1035ZM94.6042 8.41735V15H96.981V8.41735H94.6042ZM95.7926 13.8116H94.0657V16.1884H95.7926V13.8116ZM95.2541 15V8.39878H92.8773V15H95.2541ZM95.2541 8.39878C95.2541 7.77372 95.1649 7.15211 94.9007 6.61301L92.7665 7.65918C92.8117 7.75142 92.8773 7.9716 92.8773 8.39878H95.2541ZM94.9046 6.62117C94.6433 6.07758 94.2312 5.63727 93.6693 5.36804L92.6423 7.51149C92.6746 7.52698 92.7144 7.55089 92.7625 7.65103L94.9046 6.62117ZM93.6873 5.37682C93.1828 5.12457 92.6239 5.02853 92.0602 5.02853V7.40534C92.3631 7.40534 92.5346 7.45786 92.6243 7.50271L93.6873 5.37682ZM92.0602 5.02853C91.461 5.02853 90.8842 5.15596 90.3515 5.42699L91.4293 7.54539C91.6022 7.45742 91.8053 7.40534 92.0602 7.40534V5.02853ZM90.3439 5.43089C89.8449 5.68929 89.417 6.04478 89.0636 6.48434L90.916 7.97354C91.0702 7.78176 91.2426 7.64208 91.4369 7.54148L90.3439 5.43089ZM89.0547 6.49553C88.7202 6.922 88.4647 7.40168 88.2827 7.92414L90.5271 8.70629C90.6298 8.41173 90.7642 8.16722 90.9249 7.96235L89.0547 6.49553ZM88.2792 7.93422C88.0989 8.4669 88.0122 9.02336 88.0122 9.59647H90.389C90.389 9.2659 90.4385 8.96819 90.5306 8.69622L88.2792 7.93422ZM100.268 0.739131H101.456V-0.449275H100.268V0.739131ZM100.268 15V16.1884H101.456V15H100.268ZM98.5408 15H97.3524V16.1884H98.5408V15ZM98.5408 0.739131V-0.449275H97.3524V0.739131H98.5408ZM99.0793 0.739131V15H101.456V0.739131H99.0793ZM100.268 13.8116H98.5408V16.1884H100.268V13.8116ZM99.7292 15V0.739131H97.3524V15H99.7292ZM98.5408 1.92754H100.268V-0.449275H98.5408V1.92754ZM104.891 4.95426H106.08V3.76585H104.891V4.95426ZM104.891 15V16.1884H106.08V15H104.891ZM103.164 15H101.976V16.1884H103.164V15ZM103.164 4.95426V3.76585H101.976V4.95426H103.164ZM103.285 1.58401L102.403 0.787441L102.396 0.795402L102.389 0.803491L103.285 1.58401ZM104.798 1.58401L103.917 2.38059L103.924 2.38829L103.931 2.39588L104.798 1.58401ZM104.798 2.97668L103.931 2.16481L103.93 2.16581L104.798 2.97668ZM103.285 2.97668L102.389 3.7572L102.402 3.77261L102.416 3.78755L103.285 2.97668ZM103.703 4.95426V15H106.08V4.95426H103.703ZM104.891 13.8116H103.164V16.1884H104.891V13.8116ZM104.353 15V4.95426H101.976V15H104.353ZM103.164 6.14266H104.891V3.76585H103.164V6.14266ZM104.223 2.28963C104.223 2.27032 104.225 2.27812 104.217 2.30216C104.213 2.31355 104.207 2.32572 104.2 2.33762C104.193 2.34947 104.187 2.35851 104.181 2.36454L102.389 0.803491C102.015 1.23283 101.846 1.75344 101.846 2.28963H104.223ZM104.167 2.38059C104.146 2.4039 104.121 2.42545 104.094 2.4436C104.068 2.46161 104.044 2.47302 104.026 2.47977C103.991 2.49282 103.991 2.4846 104.046 2.4846V0.10779C103.48 0.10779 102.863 0.277878 102.403 0.787441L104.167 2.38059ZM104.046 2.4846C104.097 2.4846 104.092 2.49209 104.056 2.47805C104.037 2.47086 104.013 2.45918 103.987 2.44135C103.96 2.42342 103.936 2.40255 103.917 2.38059L105.68 0.787441C105.224 0.282472 104.614 0.10779 104.046 0.10779V2.4846ZM103.931 2.39588C103.92 2.38436 103.902 2.36055 103.89 2.328C103.878 2.29665 103.879 2.27979 103.879 2.28963H106.256C106.256 1.72951 106.065 1.1983 105.666 0.772145L103.931 2.39588ZM103.879 2.28963C103.879 2.28656 103.88 2.26199 103.894 2.22739C103.908 2.19251 103.925 2.17115 103.931 2.16481L105.666 3.78854C106.055 3.37335 106.256 2.85292 106.256 2.28963H103.879ZM103.93 2.16581C103.951 2.14314 103.975 2.1225 104.001 2.10528C104.027 2.0882 104.051 2.07746 104.068 2.07115C104.101 2.05894 104.1 2.0668 104.046 2.0668V4.44361C104.602 4.44361 105.208 4.27934 105.667 3.78755L103.93 2.16581ZM104.046 2.0668C103.987 2.0668 103.983 2.05826 104.014 2.06952C104.03 2.07541 104.053 2.08587 104.079 2.10311C104.106 2.12052 104.131 2.14181 104.154 2.16581L102.416 3.78755C102.879 4.28369 103.492 4.44361 104.046 4.44361V2.0668ZM104.181 2.19615C104.189 2.20518 104.203 2.22538 104.214 2.25367C104.224 2.28115 104.223 2.29651 104.223 2.28963H101.846C101.846 2.82831 102.024 3.33834 102.389 3.7572L104.181 2.19615ZM109.366 7.09896H110.555V7.07325L110.554 7.04756L109.366 7.09896ZM109.366 15V16.1884H110.555V15H109.366ZM107.649 15H106.46V16.1884H107.649V15ZM107.649 4.95426V3.76585H106.46V4.95426H107.649ZM109.274 4.95426L110.461 4.90286L110.412 3.76585H109.274V4.95426ZM108.958 9.59647L108.912 10.784L110.146 10.8321V9.59647H108.958ZM108.243 9.56861L107.055 9.55791L107.044 10.7112L108.197 10.7561L108.243 9.56861ZM108.549 7.66531L109.674 8.04829L109.676 8.04467L108.549 7.66531ZM110.666 5.13066L111.176 6.20414L111.182 6.20142L110.666 5.13066ZM113.665 4.97283L113.279 6.09669L113.287 6.0994L113.295 6.102L113.665 4.97283ZM114.677 5.60417L113.819 6.42608L113.828 6.43541L114.677 5.60417ZM115.327 6.73687L114.195 7.09907L114.197 7.1035L115.327 6.73687ZM115.55 15V16.1884H116.738V15H115.55ZM113.823 15H112.635V16.1884H113.823V15ZM113.591 7.1361L112.52 7.65104L112.524 7.65918L113.591 7.1361ZM112.913 6.43976L112.382 7.50271L112.391 7.50717L112.4 7.51149L112.913 6.43976ZM110.648 6.48619L110.109 5.42696L110.101 5.43089L110.648 6.48619ZM109.747 7.22894L108.821 6.48434L108.816 6.48991L108.812 6.49553L109.747 7.22894ZM109.162 8.31522L108.04 7.92413L108.036 7.93422L109.162 8.31522ZM108.178 7.09896V15H110.555V7.09896H108.178ZM109.366 13.8116H107.649V16.1884H109.366V13.8116ZM108.837 15V4.95426H106.46V15H108.837ZM107.649 6.14266H109.274V3.76585H107.649V6.14266ZM108.086 5.00566L108.179 7.15036L110.554 7.04756L110.461 4.90286L108.086 5.00566ZM109.004 8.40896L108.289 8.38111L108.197 10.7561L108.912 10.784L109.004 8.40896ZM109.431 9.57932C109.437 9.00417 109.522 8.49696 109.674 8.04829L107.424 7.28233C107.181 7.9973 107.062 8.75896 107.055 9.55791L109.431 9.57932ZM109.676 8.04467C109.832 7.58064 110.043 7.20163 110.3 6.8916L108.47 5.37515C108.009 5.93167 107.663 6.57395 107.423 7.28595L109.676 8.04467ZM110.3 6.8916C110.552 6.58805 110.842 6.36303 111.176 6.20412L110.156 4.0572C109.501 4.3687 108.936 4.81216 108.47 5.37515L110.3 6.8916ZM111.182 6.20142C111.508 6.04425 111.884 5.95697 112.328 5.95697V3.58016C111.559 3.58016 110.827 3.73429 110.151 4.05991L111.182 6.20142ZM112.328 5.95697C112.715 5.95697 113.027 6.01023 113.279 6.09669L114.051 3.84897C113.511 3.66308 112.931 3.58016 112.328 3.58016V5.95697ZM113.295 6.102C113.512 6.17337 113.68 6.28111 113.819 6.42603L115.535 4.7823C115.117 4.3454 114.61 4.03225 114.036 3.84365L113.295 6.102ZM113.828 6.43541C113.96 6.57047 114.092 6.7766 114.195 7.09906L116.459 6.37467C116.265 5.76869 115.964 5.21969 115.526 4.77292L113.828 6.43541ZM114.197 7.1035C114.295 7.408 114.361 7.83631 114.361 8.41735H116.738C116.738 7.67381 116.656 6.9818 116.457 6.37024L114.197 7.1035ZM114.361 8.41735V15H116.738V8.41735H114.361ZM115.55 13.8116H113.823V16.1884H115.55V13.8116ZM115.011 15V8.39878H112.635V15H115.011ZM115.011 8.39878C115.011 7.77372 114.922 7.15211 114.658 6.61301L112.524 7.65918C112.569 7.75142 112.635 7.9716 112.635 8.39878H115.011ZM114.662 6.62117C114.401 6.07758 113.988 5.63727 113.427 5.36804L112.4 7.51149C112.432 7.52698 112.472 7.55089 112.52 7.65103L114.662 6.62117ZM113.445 5.37682C112.94 5.12457 112.381 5.02853 111.817 5.02853V7.40534C112.12 7.40534 112.292 7.45786 112.382 7.50271L113.445 5.37682ZM111.817 5.02853C111.218 5.02853 110.641 5.15596 110.109 5.42699L111.187 7.54539C111.359 7.45742 111.563 7.40534 111.817 7.40534V5.02853ZM110.101 5.43089C109.602 5.68929 109.174 6.04478 108.821 6.48434L110.673 7.97354C110.827 7.78176 111 7.64208 111.194 7.54148L110.101 5.43089ZM108.812 6.49553C108.477 6.922 108.222 7.40168 108.04 7.92414L110.284 8.70629C110.387 8.41173 110.521 8.16722 110.682 7.96235L108.812 6.49553ZM108.036 7.93422C107.856 8.4669 107.769 9.02336 107.769 9.59647H110.146C110.146 9.2659 110.196 8.96819 110.288 8.69622L108.036 7.93422ZM120.424 14.8329L119.956 15.9252L119.963 15.9283L119.97 15.9313L120.424 14.8329ZM118.966 13.8209L118.096 14.6296L118.102 14.6361L118.966 13.8209ZM118.038 12.2797L116.922 12.6867L118.038 12.2797ZM118.075 7.75815L119.187 8.17898L119.188 8.17543L118.075 7.75815ZM119.059 6.12409L118.189 5.31452L119.059 6.12409ZM123.962 5.13995L123.451 6.21292L123.455 6.21524L123.962 5.13995ZM125.252 6.1798L124.301 6.89286L124.306 6.89922L125.252 6.1798ZM125.995 7.73958L124.847 8.04727L124.848 8.05025L125.995 7.73958ZM126.236 10.4599V11.6483H127.425V10.4599H126.236ZM118.734 10.4599H117.546V11.6483H118.734V10.4599ZM118.734 9.05797V7.86957H117.546V9.05797H118.734ZM124.519 9.05797V10.2464H125.707V9.05797H124.519ZM124.519 8.92799H125.707V8.895L125.705 8.86207L124.519 8.92799ZM124.24 7.62817L123.125 8.03825L123.127 8.04544L123.13 8.05259L124.24 7.62817ZM121.028 6.43048L121.551 7.49742L121.559 7.49347L121.567 7.4894L121.028 6.43048ZM119.635 11.6762L118.499 12.0268L118.503 12.0369L118.506 12.0469L119.635 11.6762ZM120.22 12.7717L119.294 13.5164L119.303 13.5272L120.22 12.7717ZM121.158 13.5145L120.633 14.581L120.64 14.5845L121.158 13.5145ZM125.066 12.4189L125.806 11.4885L124.856 10.7336L124.121 11.6991L125.066 12.4189ZM126.106 13.2452L127.098 13.9001L127.698 12.9919L126.846 12.3148L126.106 13.2452ZM124.045 14.9072L123.623 13.7962L123.618 13.798L124.045 14.9072ZM122.327 13.9973C121.763 13.9973 121.285 13.9028 120.878 13.7345L119.97 15.9313C120.702 16.2334 121.493 16.3741 122.327 16.3741V13.9973ZM120.892 13.7406C120.474 13.5614 120.125 13.3168 119.831 13.0056L118.102 14.6361C118.625 15.1915 119.247 15.6215 119.956 15.9252L120.892 13.7406ZM119.837 13.0122C119.55 12.703 119.321 12.3284 119.155 11.8726L116.922 12.6867C117.189 13.4193 117.578 14.0722 118.096 14.6295L119.837 13.0122ZM119.155 11.8726C118.991 11.423 118.901 10.9127 118.901 10.3299H116.525C116.525 11.1584 116.652 11.9479 116.922 12.6867L119.155 11.8726ZM118.901 10.3299V9.93999H116.525V10.3299H118.901ZM118.901 9.93999C118.901 9.23893 119.005 8.65828 119.187 8.17897L116.964 7.33733C116.662 8.13308 116.525 9.007 116.525 9.93999H118.901ZM119.188 8.17543C119.382 7.65835 119.633 7.25189 119.929 6.93367L118.189 5.31452C117.656 5.8876 117.251 6.57051 116.962 7.34088L119.188 8.17543ZM119.929 6.93367C120.24 6.60017 120.578 6.36166 120.945 6.20174L119.996 4.02245C119.311 4.32056 118.708 4.75672 118.189 5.31452L119.929 6.93367ZM120.945 6.20174C121.324 6.03661 121.708 5.95697 122.105 5.95697V3.58016C121.375 3.58016 120.669 3.72954 119.996 4.02245L120.945 6.20174ZM122.105 5.95697C122.688 5.95697 123.125 6.05771 123.451 6.21291L124.472 4.06698C123.759 3.72702 122.957 3.58016 122.105 3.58016V5.95697ZM123.455 6.21524C123.814 6.38394 124.089 6.60932 124.301 6.89284L126.203 5.46676C125.747 4.85897 125.161 4.39112 124.468 4.06465L123.455 6.21524ZM124.306 6.89922C124.536 7.20134 124.721 7.57724 124.847 8.04726L127.143 7.4319C126.947 6.70114 126.637 6.03719 126.198 5.46038L124.306 6.89922ZM124.848 8.05025C124.978 8.52967 125.048 9.07364 125.048 9.68931H127.425C127.425 8.89375 127.334 8.1379 127.142 7.42892L124.848 8.05025ZM125.048 9.68931V10.4599H127.425V9.68931H125.048ZM126.236 9.27151H118.734V11.6483H126.236V9.27151ZM119.923 10.4599V9.05797H117.546V10.4599H119.923ZM118.734 10.2464H124.519V7.86957H118.734V10.2464ZM125.707 9.05797V8.92799H123.33V9.05797H125.707ZM125.705 8.86207C125.674 8.29249 125.554 7.73835 125.35 7.20375L123.13 8.05259C123.247 8.35978 123.314 8.67219 123.332 8.99391L125.705 8.86207ZM125.355 7.21809C125.128 6.59989 124.754 6.07207 124.24 5.66033L122.755 7.5163C122.921 7.64924 123.042 7.81466 123.125 8.03825L125.355 7.21809ZM124.24 5.66033C123.625 5.16889 122.869 4.9914 122.105 4.9914V7.36821C122.517 7.36821 122.688 7.46305 122.755 7.5163L124.24 5.66033ZM122.105 4.9914C121.539 4.9914 120.993 5.1143 120.488 5.37156L121.567 7.4894C121.718 7.41242 121.891 7.36821 122.105 7.36821V4.9914ZM120.504 5.36354C119.988 5.61681 119.561 5.99063 119.223 6.45349L121.142 7.85584C121.274 7.67498 121.411 7.56601 121.551 7.49742L120.504 5.36354ZM119.223 6.45349C118.889 6.91141 118.651 7.44002 118.491 8.01336L120.779 8.65422C120.879 8.29911 121.006 8.04164 121.142 7.85584L119.223 6.45349ZM118.491 8.01336C118.325 8.60469 118.252 9.25165 118.252 9.93999H120.628C120.628 9.41517 120.685 8.99132 120.779 8.65422L118.491 8.01336ZM118.252 9.93999V10.3299H120.628V9.93999H118.252ZM118.252 10.3299C118.252 10.9157 118.332 11.4835 118.499 12.0268L120.77 11.3255C120.678 11.0271 120.628 10.6974 120.628 10.3299H118.252ZM118.506 12.0469C118.683 12.5868 118.944 13.0809 119.294 13.5163L121.146 12.0271C120.989 11.8312 120.859 11.5949 120.764 11.3054L118.506 12.0469ZM119.303 13.5272C119.669 13.9727 120.116 14.3266 120.633 14.581L121.682 12.448C121.469 12.3434 121.29 12.2021 121.137 12.0163L119.303 13.5272ZM120.64 14.5845C121.194 14.8522 121.796 14.9721 122.42 14.9721V12.5953C122.104 12.5953 121.864 12.5358 121.675 12.4445L120.64 14.5845ZM122.42 14.9721C123.188 14.9721 123.921 14.8149 124.564 14.4367L123.359 12.388C123.16 12.505 122.866 12.5953 122.42 12.5953V14.9721ZM124.564 14.4367C125.127 14.1057 125.609 13.6679 126.012 13.1387L124.121 11.6991C123.892 11.9994 123.638 12.2239 123.359 12.388L124.564 14.4367ZM124.327 13.3493L125.367 14.1757L126.846 12.3148L125.806 11.4885L124.327 13.3493ZM125.115 12.5904C124.962 12.8213 124.758 13.0571 124.49 13.2947L126.069 15.0712C126.471 14.7147 126.817 14.3253 127.098 13.9001L125.115 12.5904ZM124.49 13.2947C124.281 13.4811 124 13.6532 123.623 13.7962L124.467 16.0182C125.069 15.7897 125.611 15.4791 126.069 15.0712L124.49 13.2947ZM123.618 13.798C123.304 13.9189 122.883 13.9973 122.327 13.9973V16.3741C123.097 16.3741 123.821 16.2668 124.472 16.0163L123.618 13.798Z" fill="white"/>
</svg>
