<svg width="69" height="13" viewBox="0 0 69 13" fill="none" xmlns="http://www.w3.org/2000/svg">
<path d="M6.59375 6.97656H1.82031V12H0.320312V0.625H7.36719V1.85938H1.82031V5.75H6.59375V6.97656ZM13.8906 12C13.8073 11.8333 13.7396 11.5365 13.6875 11.1094C13.0156 11.8073 12.2135 12.1562 11.2812 12.1562C10.4479 12.1562 9.76302 11.9219 9.22656 11.4531C8.69531 10.9792 8.42969 10.3802 8.42969 9.65625C8.42969 8.77604 8.76302 8.09375 9.42969 7.60938C10.1016 7.11979 11.0443 6.875 12.2578 6.875H13.6641V6.21094C13.6641 5.70573 13.513 5.30469 13.2109 5.00781C12.9089 4.70573 12.4635 4.55469 11.875 4.55469C11.3594 4.55469 10.9271 4.6849 10.5781 4.94531C10.2292 5.20573 10.0547 5.52083 10.0547 5.89062H8.60156C8.60156 5.46875 8.75 5.0625 9.04688 4.67188C9.34896 4.27604 9.75521 3.96354 10.2656 3.73438C10.7812 3.50521 11.3464 3.39062 11.9609 3.39062C12.9349 3.39062 13.6979 3.63542 14.25 4.125C14.8021 4.60938 15.0885 5.27865 15.1094 6.13281V10.0234C15.1094 10.7995 15.2083 11.4167 15.4062 11.875V12H13.8906ZM11.4922 10.8984C11.9453 10.8984 12.375 10.7812 12.7812 10.5469C13.1875 10.3125 13.4818 10.0078 13.6641 9.63281V7.89844H12.5312C10.7604 7.89844 9.875 8.41667 9.875 9.45312C9.875 9.90625 10.026 10.2604 10.3281 10.5156C10.6302 10.7708 11.0182 10.8984 11.4922 10.8984ZM20.7656 10.9766C21.2812 10.9766 21.7318 10.8203 22.1172 10.5078C22.5026 10.1953 22.7161 9.80469 22.7578 9.33594H24.125C24.099 9.82031 23.9323 10.2812 23.625 10.7188C23.3177 11.1562 22.9062 11.5052 22.3906 11.7656C21.8802 12.026 21.3385 12.1562 20.7656 12.1562C19.6146 12.1562 18.6979 11.7734 18.0156 11.0078C17.3385 10.237 17 9.1849 17 7.85156V7.60938C17 6.78646 17.151 6.05469 17.4531 5.41406C17.7552 4.77344 18.1875 4.27604 18.75 3.92188C19.3177 3.56771 19.987 3.39062 20.7578 3.39062C21.7057 3.39062 22.4922 3.67448 23.1172 4.24219C23.7474 4.8099 24.0833 5.54688 24.125 6.45312H22.7578C22.7161 5.90625 22.5078 5.45833 22.1328 5.10938C21.763 4.75521 21.3047 4.57812 20.7578 4.57812C20.0234 4.57812 19.4531 4.84375 19.0469 5.375C18.6458 5.90104 18.4453 6.66406 18.4453 7.66406V7.9375C18.4453 8.91146 18.6458 9.66146 19.0469 10.1875C19.4479 10.7135 20.0208 10.9766 20.7656 10.9766ZM29.2578 12.1562C28.112 12.1562 27.1797 11.7812 26.4609 11.0312C25.7422 10.276 25.3828 9.26823 25.3828 8.00781V7.74219C25.3828 6.90365 25.5417 6.15625 25.8594 5.5C26.1823 4.83854 26.6302 4.32292 27.2031 3.95312C27.7812 3.57812 28.4062 3.39062 29.0781 3.39062C30.1771 3.39062 31.0312 3.7526 31.6406 4.47656C32.25 5.20052 32.5547 6.23698 32.5547 7.58594V8.1875H26.8281C26.849 9.02083 27.0911 9.69531 27.5547 10.2109C28.0234 10.7214 28.6172 10.9766 29.3359 10.9766C29.8464 10.9766 30.2786 10.8724 30.6328 10.6641C30.987 10.4557 31.2969 10.1797 31.5625 9.83594L32.4453 10.5234C31.737 11.612 30.6745 12.1562 29.2578 12.1562ZM29.0781 4.57812C28.4948 4.57812 28.0052 4.79167 27.6094 5.21875C27.2135 5.64062 26.9688 6.23438 26.875 7H31.1094V6.89062C31.0677 6.15625 30.8698 5.58854 30.5156 5.1875C30.1615 4.78125 29.6823 4.57812 29.0781 4.57812ZM41.3906 7.86719C41.3906 9.15885 41.0938 10.1979 40.5 10.9844C39.9062 11.7656 39.1094 12.1562 38.1094 12.1562C37.0417 12.1562 36.2161 11.7786 35.6328 11.0234L35.5625 12H34.2344V0H35.6797V4.47656C36.263 3.7526 37.0677 3.39062 38.0938 3.39062C39.1198 3.39062 39.9245 3.77865 40.5078 4.55469C41.0964 5.33073 41.3906 6.39323 41.3906 7.74219V7.86719ZM39.9453 7.70312C39.9453 6.71875 39.7552 5.95833 39.375 5.42188C38.9948 4.88542 38.4479 4.61719 37.7344 4.61719C36.7812 4.61719 36.0964 5.0599 35.6797 5.94531V9.60156C36.1224 10.487 36.8125 10.9297 37.75 10.9297C38.4427 10.9297 38.9818 10.6615 39.3672 10.125C39.7526 9.58854 39.9453 8.78125 39.9453 7.70312ZM42.8359 7.69531C42.8359 6.86719 42.9974 6.1224 43.3203 5.46094C43.6484 4.79948 44.1016 4.28906 44.6797 3.92969C45.263 3.57031 45.9271 3.39062 46.6719 3.39062C47.8229 3.39062 48.7526 3.78906 49.4609 4.58594C50.1745 5.38281 50.5312 6.44271 50.5312 7.76562V7.86719C50.5312 8.6901 50.3724 9.42969 50.0547 10.0859C49.7422 10.737 49.2917 11.2448 48.7031 11.6094C48.1198 11.974 47.4479 12.1562 46.6875 12.1562C45.5417 12.1562 44.612 11.7578 43.8984 10.9609C43.1901 10.1641 42.8359 9.10938 42.8359 7.79688V7.69531ZM44.2891 7.86719C44.2891 8.80469 44.5052 9.55729 44.9375 10.125C45.375 10.6927 45.9583 10.9766 46.6875 10.9766C47.4219 10.9766 48.0052 10.6901 48.4375 10.1172C48.8698 9.53906 49.0859 8.73177 49.0859 7.69531C49.0859 6.76823 48.8646 6.01823 48.4219 5.44531C47.9844 4.86719 47.401 4.57812 46.6719 4.57812C45.9583 4.57812 45.3828 4.86198 44.9453 5.42969C44.5078 5.9974 44.2891 6.8099 44.2891 7.86719ZM51.9609 7.69531C51.9609 6.86719 52.1224 6.1224 52.4453 5.46094C52.7734 4.79948 53.2266 4.28906 53.8047 3.92969C54.388 3.57031 55.0521 3.39062 55.7969 3.39062C56.9479 3.39062 57.8776 3.78906 58.5859 4.58594C59.2995 5.38281 59.6562 6.44271 59.6562 7.76562V7.86719C59.6562 8.6901 59.4974 9.42969 59.1797 10.0859C58.8672 10.737 58.4167 11.2448 57.8281 11.6094C57.2448 11.974 56.5729 12.1562 55.8125 12.1562C54.6667 12.1562 53.737 11.7578 53.0234 10.9609C52.3151 10.1641 51.9609 9.10938 51.9609 7.79688V7.69531ZM53.4141 7.86719C53.4141 8.80469 53.6302 9.55729 54.0625 10.125C54.5 10.6927 55.0833 10.9766 55.8125 10.9766C56.5469 10.9766 57.1302 10.6901 57.5625 10.1172C57.9948 9.53906 58.2109 8.73177 58.2109 7.69531C58.2109 6.76823 57.9896 6.01823 57.5469 5.44531C57.1094 4.86719 56.526 4.57812 55.7969 4.57812C55.0833 4.57812 54.5078 4.86198 54.0703 5.42969C53.6328 5.9974 53.4141 6.8099 53.4141 7.86719ZM63.8281 8.08594L62.9219 9.03125V12H61.4766V0H62.9219V7.25781L63.6953 6.32812L66.3281 3.54688H68.0859L64.7969 7.07812L68.4688 12H66.7734L63.8281 8.08594Z" fill="white"/>
</svg>
