<svg width="50" height="13" viewBox="0 0 50 13" fill="none" xmlns="http://www.w3.org/2000/svg">
<path d="M9.17969 1.85938H5.52344V12H4.03125V1.85938H0.382812V0.625H9.17969V1.85938ZM17.6719 10.0078L19.2969 3.54688H20.7422L18.2812 12H17.1094L15.0547 5.59375L13.0547 12H11.8828L9.42969 3.54688H10.8672L12.5312 9.875L14.5 3.54688H15.6641L17.6719 10.0078ZM23.7891 12H22.3438V3.54688H23.7891V12ZM22.2266 1.30469C22.2266 1.07031 22.2969 0.872396 22.4375 0.710938C22.5833 0.549479 22.7969 0.46875 23.0781 0.46875C23.3594 0.46875 23.5729 0.549479 23.7188 0.710938C23.8646 0.872396 23.9375 1.07031 23.9375 1.30469C23.9375 1.53906 23.8646 1.73438 23.7188 1.89062C23.5729 2.04688 23.3594 2.125 23.0781 2.125C22.7969 2.125 22.5833 2.04688 22.4375 1.89062C22.2969 1.73438 22.2266 1.53906 22.2266 1.30469ZM28.0703 1.5V3.54688H29.6484V4.66406H28.0703V9.90625C28.0703 10.2448 28.1406 10.5 28.2812 10.6719C28.4219 10.8385 28.6615 10.9219 29 10.9219C29.1667 10.9219 29.3958 10.8906 29.6875 10.8281V12C29.3073 12.1042 28.9375 12.1562 28.5781 12.1562C27.9323 12.1562 27.4453 11.9609 27.1172 11.5703C26.7891 11.1797 26.625 10.625 26.625 9.90625V4.66406H25.0859V3.54688H26.625V1.5H28.0703ZM33.3047 1.5V3.54688H34.8828V4.66406H33.3047V9.90625C33.3047 10.2448 33.375 10.5 33.5156 10.6719C33.6562 10.8385 33.8958 10.9219 34.2344 10.9219C34.401 10.9219 34.6302 10.8906 34.9219 10.8281V12C34.5417 12.1042 34.1719 12.1562 33.8125 12.1562C33.1667 12.1562 32.6797 11.9609 32.3516 11.5703C32.0234 11.1797 31.8594 10.625 31.8594 9.90625V4.66406H30.3203V3.54688H31.8594V1.5H33.3047ZM40.0859 12.1562C38.9401 12.1562 38.0078 11.7812 37.2891 11.0312C36.5703 10.276 36.2109 9.26823 36.2109 8.00781V7.74219C36.2109 6.90365 36.3698 6.15625 36.6875 5.5C37.0104 4.83854 37.4583 4.32292 38.0312 3.95312C38.6094 3.57812 39.2344 3.39062 39.9062 3.39062C41.0052 3.39062 41.8594 3.7526 42.4688 4.47656C43.0781 5.20052 43.3828 6.23698 43.3828 7.58594V8.1875H37.6562C37.6771 9.02083 37.9193 9.69531 38.3828 10.2109C38.8516 10.7214 39.4453 10.9766 40.1641 10.9766C40.6745 10.9766 41.1068 10.8724 41.4609 10.6641C41.8151 10.4557 42.125 10.1797 42.3906 9.83594L43.2734 10.5234C42.5651 11.612 41.5026 12.1562 40.0859 12.1562ZM39.9062 4.57812C39.3229 4.57812 38.8333 4.79167 38.4375 5.21875C38.0417 5.64062 37.7969 6.23438 37.7031 7H41.9375V6.89062C41.8958 6.15625 41.6979 5.58854 41.3438 5.1875C40.9896 4.78125 40.5104 4.57812 39.9062 4.57812ZM49.1484 4.84375C48.9297 4.80729 48.6927 4.78906 48.4375 4.78906C47.4896 4.78906 46.8464 5.19271 46.5078 6V12H45.0625V3.54688H46.4688L46.4922 4.52344C46.9661 3.76823 47.638 3.39062 48.5078 3.39062C48.7891 3.39062 49.0026 3.42708 49.1484 3.5V4.84375Z" fill="white"/>
</svg>
