<svg width="62" height="13" viewBox="0 0 62 13" fill="none" xmlns="http://www.w3.org/2000/svg">
<path d="M4.78906 6.33594L7.75781 0.625H9.46094L5.53906 7.75781V12H4.03906V7.75781L0.117188 0.625H1.83594L4.78906 6.33594ZM9.80469 7.69531C9.80469 6.86719 9.96615 6.1224 10.2891 5.46094C10.6172 4.79948 11.0703 4.28906 11.6484 3.92969C12.2318 3.57031 12.8958 3.39062 13.6406 3.39062C14.7917 3.39062 15.7214 3.78906 16.4297 4.58594C17.1432 5.38281 17.5 6.44271 17.5 7.76562V7.86719C17.5 8.6901 17.3411 9.42969 17.0234 10.0859C16.7109 10.737 16.2604 11.2448 15.6719 11.6094C15.0885 11.974 14.4167 12.1562 13.6562 12.1562C12.5104 12.1562 11.5807 11.7578 10.8672 10.9609C10.1589 10.1641 9.80469 9.10938 9.80469 7.79688V7.69531ZM11.2578 7.86719C11.2578 8.80469 11.474 9.55729 11.9062 10.125C12.3438 10.6927 12.9271 10.9766 13.6562 10.9766C14.3906 10.9766 14.974 10.6901 15.4062 10.1172C15.8385 9.53906 16.0547 8.73177 16.0547 7.69531C16.0547 6.76823 15.8333 6.01823 15.3906 5.44531C14.9531 4.86719 14.3698 4.57812 13.6406 4.57812C12.9271 4.57812 12.3516 4.86198 11.9141 5.42969C11.4766 5.9974 11.2578 6.8099 11.2578 7.86719ZM24.5312 11.1641C23.9688 11.8255 23.1432 12.1562 22.0547 12.1562C21.1536 12.1562 20.4661 11.8958 19.9922 11.375C19.5234 10.849 19.2865 10.0729 19.2812 9.04688V3.54688H20.7266V9.00781C20.7266 10.2891 21.2474 10.9297 22.2891 10.9297C23.3932 10.9297 24.1276 10.5182 24.4922 9.69531V3.54688H25.9375V12H24.5625L24.5312 11.1641ZM36.2266 1.85938H32.5703V12H31.0781V1.85938H27.4297V0.625H36.2266V1.85938ZM42.1562 11.1641C41.5938 11.8255 40.7682 12.1562 39.6797 12.1562C38.7786 12.1562 38.0911 11.8958 37.6172 11.375C37.1484 10.849 36.9115 10.0729 36.9062 9.04688V3.54688H38.3516V9.00781C38.3516 10.2891 38.8724 10.9297 39.9141 10.9297C41.0182 10.9297 41.7526 10.5182 42.1172 9.69531V3.54688H43.5625V12H42.1875L42.1562 11.1641ZM52.9219 7.86719C52.9219 9.15885 52.625 10.1979 52.0312 10.9844C51.4375 11.7656 50.6406 12.1562 49.6406 12.1562C48.5729 12.1562 47.7474 11.7786 47.1641 11.0234L47.0938 12H45.7656V0H47.2109V4.47656C47.7943 3.7526 48.599 3.39062 49.625 3.39062C50.651 3.39062 51.4557 3.77865 52.0391 4.55469C52.6276 5.33073 52.9219 6.39323 52.9219 7.74219V7.86719ZM51.4766 7.70312C51.4766 6.71875 51.2865 5.95833 50.9062 5.42188C50.526 4.88542 49.9792 4.61719 49.2656 4.61719C48.3125 4.61719 47.6276 5.0599 47.2109 5.94531V9.60156C47.6536 10.487 48.3438 10.9297 49.2812 10.9297C49.974 10.9297 50.513 10.6615 50.8984 10.125C51.2839 9.58854 51.4766 8.78125 51.4766 7.70312ZM58.2578 12.1562C57.112 12.1562 56.1797 11.7812 55.4609 11.0312C54.7422 10.276 54.3828 9.26823 54.3828 8.00781V7.74219C54.3828 6.90365 54.5417 6.15625 54.8594 5.5C55.1823 4.83854 55.6302 4.32292 56.2031 3.95312C56.7812 3.57812 57.4062 3.39062 58.0781 3.39062C59.1771 3.39062 60.0312 3.7526 60.6406 4.47656C61.25 5.20052 61.5547 6.23698 61.5547 7.58594V8.1875H55.8281C55.849 9.02083 56.0911 9.69531 56.5547 10.2109C57.0234 10.7214 57.6172 10.9766 58.3359 10.9766C58.8464 10.9766 59.2786 10.8724 59.6328 10.6641C59.987 10.4557 60.2969 10.1797 60.5625 9.83594L61.4453 10.5234C60.737 11.612 59.6745 12.1562 58.2578 12.1562ZM58.0781 4.57812C57.4948 4.57812 57.0052 4.79167 56.6094 5.21875C56.2135 5.64062 55.9688 6.23438 55.875 7H60.1094V6.89062C60.0677 6.15625 59.8698 5.58854 59.5156 5.1875C59.1615 4.78125 58.6823 4.57812 58.0781 4.57812Z" fill="white"/>
</svg>
